<?xml version="1.0" encoding="utf-8"?>
<svg viewBox="0 0 369.5836 217.5212" xmlns="http://www.w3.org/2000/svg">
  <defs>
    <linearGradient id="color-13041360795" y2="0.5" x2="1" y1="0.5" x1="0">
      <stop stop-color="#8360c3" offset="0"/>
      <stop stop-color="#2ebf91" offset="1"/>
    </linearGradient>
  </defs>
  <g text-anchor="none" font-size="none" font-weight="none" font-family="none" stroke-dashoffset="0" stroke-miterlimit="10" fill-rule="nonzero" fill="url(#color-13041360795)">
    <path d="m0,208.97363c2.6039,5.94368 7.18902,8.54758 12.67985,8.54758c7.18902,0 12.79306,-3.90585 12.79306,-10.81183c0,-4.75494 -2.83032,-8.20794 -12.84967,-12.05718c-7.18902,-2.77372 -9.50989,-4.69834 -9.50989,-8.94382c0,-4.92476 4.30209,-7.30223 9.34007,-7.30223c4.86816,0 8.43436,2.15105 10.92505,6.00028l1.86801,-1.47177c-2.83032,-4.3587 -7.24563,-6.67956 -12.62324,-6.67956c-6.62296,0 -12.00057,3.16996 -12.00057,9.6797c0,4.64173 2.71711,7.9249 10.5288,10.75523c9.00043,3.28317 11.83075,6.1701 11.83075,9.79292c0,5.43422 -3.79263,8.88721 -10.18916,8.88721c-5.09458,0 -8.88721,-2.6605 -10.69862,-7.64187l-2.09444,1.24534z"/>
    <path d="m59.88963,216.78532l-11.15147,-17.83104c6.67956,0 10.98165,-4.98137 10.98165,-10.98165c0,-6.00028 -4.13227,-10.98165 -10.5288,-10.98165l-16.6423,0l0,39.79434l2.37747,0l0,-17.83104l10.98165,0l11.15147,17.83104l2.83033,0zm-24.96344,-19.98208l0,-17.66122l14.09501,0c5.03798,0 8.20794,4.01906 8.20794,8.83061c0,4.81155 -3.16996,8.83061 -8.20794,8.83061l-14.09501,0z"/>
    <path d="m69.05988,216.78532l0,-39.79434l-2.37747,0l0,39.79434l2.37747,0z"/>
    <path d="m113.83559,216.78532l0,-2.15105l-20.32172,0l0,-37.6433l-2.37747,0l0,39.79434l22.69919,0.00001z"/>
    <path d="m147.1768,216.78532l-14.20822,-39.79434l-2.6605,0l-14.20822,39.79434l2.49068,0l4.07567,-11.49111l17.94425,0l4.07567,11.49111l2.49067,0zm-7.24563,-13.52894l-16.58569,0l8.26454,-23.37847l8.32115,23.37847z"/>
    <path d="m180.85764,216.78532l0,-39.79434l-2.37747,0l0,36.05832l-23.32186,-36.05832l-2.6039,0l0,39.79434l2.37747,0l0,-36.00171l23.26526,36.00171l2.6605,0z"/>
    <path d="m217.2556,216.78532l-14.49125,-24.11435l13.81198,-15.67999l-2.88693,0l-21.96331,25.13327l0,-25.13327l-2.37747,0l0,39.79434l2.37747,0l0,-11.49111l9.50989,-10.81183l13.35912,22.30295l2.6605,-0.00001z"/>
    <path d="m250.87983,216.78532l-14.20822,-39.79434l-2.6605,0l-14.20822,39.79434l2.49068,0l4.07567,-11.49111l17.94425,0l4.07567,11.49111l2.49067,0zm-7.24562,-13.52894l-16.58569,0l8.26454,-23.37847l8.32115,23.37847z"/>
    <path d="m297.18392,216.78532l-11.15147,-17.83104c6.67956,0 10.98165,-4.98137 10.98165,-10.98165c0,-6.00028 -4.13227,-10.98165 -10.5288,-10.98165l-16.6423,0l0,39.79434l2.37747,0l0,-17.83104l10.98165,0l11.15147,17.83104l2.83033,0zm-24.96345,-19.98208l0,-17.66122l14.09501,0c5.03798,0 8.20794,4.01906 8.20794,8.83061c0,4.81155 -3.16996,8.83061 -8.20794,8.83061l-14.09501,0z"/>
    <path d="m328.99675,216.78532l0,-2.15105l-22.64258,0l0,-17.60461l16.35927,0l0,-2.15105l-16.35927,0l0,-15.7366l21.51046,0l0,-2.15105l-23.88793,0l0,39.79434l25.02005,0.00002z"/>
    <path d="m337.60093,216.78532l0,-39.79434l-2.37747,0l0,39.79434l2.37747,0z"/>
    <path d="m344.11067,208.97363c2.6039,5.94368 7.18902,8.54758 12.67985,8.54758c7.18902,0 12.79306,-3.90585 12.79306,-10.81183c0,-4.75494 -2.83032,-8.20794 -12.84967,-12.05718c-7.18902,-2.77372 -9.50989,-4.69834 -9.50989,-8.94382c0,-4.92476 4.30209,-7.30223 9.34007,-7.30223c4.86816,0 8.43436,2.15105 10.92505,6.00028l1.86801,-1.47177c-2.83032,-4.3587 -7.24563,-6.67956 -12.62324,-6.67956c-6.62296,0 -12.00057,3.16996 -12.00057,9.6797c0,4.64173 2.71711,7.9249 10.5288,10.75523c9.00043,3.28317 11.83075,6.1701 11.83075,9.79292c0,5.43422 -3.79263,8.88721 -10.18916,8.88721c-5.09458,0 -8.88721,-2.6605 -10.69862,-7.64187l-2.09444,1.24534z"/>
    <path d="m159.6225,4.18536c-26.79154,11.27205 -44.59812,34.4696 -46.8852,62.40469l37.5735,0.32672l0,61.58787c-13.06904,-9.14833 -23.36092,-23.68764 -26.79154,-39.04377l-9.47506,0c5.71771,26.13809 21.40056,44.10802 45.57829,54.23653l0.16337,-86.25569l-35.93987,0c3.59399,-14.86604 13.72249,-29.07862 26.46481,-38.06359l0,27.60835l9.47506,0l-0.16336,-42.80111zm16.41461,5.28918c3.05112,-0.32117 6.10225,-0.48176 8.99278,-0.48176l0,-8.99278c-4.97815,0 -14.45269,0.64234 -18.14615,1.60585l0,143.88454c11.56215,3.05112 21.67903,3.21171 35.48938,0.32117l-1.60585,-8.8322c-8.99278,2.2482 -15.4162,2.2482 -24.73015,0.96352l-0.00001,-128.46834zm33.43388,134.22286l9.63842,-4.73753l-0.16337,-70.57284l13.88586,0l14.04923,14.53931c-1.14354,9.96515 -5.06425,19.93029 -11.76214,29.73207l0,14.37595c13.23241,-13.55913 21.72728,-33.48943 21.72728,-48.51883l-15.68285,-15.35612l13.06904,-10.94532c-6.37116,-20.25702 -26.13809,-43.12784 -44.76147,-48.02874l0,139.51205zm9.47506,-123.50246c10.12851,7.18798 19.11348,17.15312 23.85101,28.09844l-11.9255,10.78196l-11.9255,0l-0.00001,-38.8804z"/>
  </g>
</svg>
