<?xml version="1.0" encoding="utf-8"?>
<svg viewBox="112.7373 0 144.1089 147.8828" xmlns="http://www.w3.org/2000/svg">
  <defs>
    <linearGradient id="color-13041360795" y2="0.5" x2="1" y1="0.5" x1="0">
      <stop stop-color="#8360c3" offset="0"/>
      <stop stop-color="#2ebf91" offset="1"/>
    </linearGradient>
  </defs>
  <g text-anchor="none" font-size="none" font-weight="none" font-family="none" stroke-dashoffset="0" stroke-miterlimit="10" fill-rule="nonzero" fill="url(#color-13041360795)">
    <path d="m159.6225,4.18536c-26.79154,11.27205 -44.59812,34.4696 -46.8852,62.40469l37.5735,0.32672l0,61.58787c-13.06904,-9.14833 -23.36092,-23.68764 -26.79154,-39.04377l-9.47506,0c5.71771,26.13809 21.40056,44.10802 45.57829,54.23653l0.16337,-86.25569l-35.93987,0c3.59399,-14.86604 13.72249,-29.07862 26.46481,-38.06359l0,27.60835l9.47506,0l-0.16336,-42.80111zm16.41461,5.28918c3.05112,-0.32117 6.10225,-0.48176 8.99278,-0.48176l0,-8.99278c-4.97815,0 -14.45269,0.64234 -18.14615,1.60585l0,143.88454c11.56215,3.05112 21.67903,3.21171 35.48938,0.32117l-1.60585,-8.8322c-8.99278,2.2482 -15.4162,2.2482 -24.73015,0.96352l-0.00001,-128.46834zm33.43388,134.22286l9.63842,-4.73753l-0.16337,-70.57284l13.88586,0l14.04923,14.53931c-1.14354,9.96515 -5.06425,19.93029 -11.76214,29.73207l0,14.37595c13.23241,-13.55913 21.72728,-33.48943 21.72728,-48.51883l-15.68285,-15.35612l13.06904,-10.94532c-6.37116,-20.25702 -26.13809,-43.12784 -44.76147,-48.02874l0,139.51205zm9.47506,-123.50246c10.12851,7.18798 19.11348,17.15312 23.85101,28.09844l-11.9255,10.78196l-11.9255,0l-0.00001,-38.8804z"/>
  </g>
</svg>
