<?xml version="1.0" encoding="utf-8"?>
<svg viewBox="0 0 369.5836 240" xmlns="http://www.w3.org/2000/svg">
  <defs>
    <linearGradient id="color-13041360795" y2="0.5" x2="1" y1="0.5" x1="0">
      <stop stop-color="#8360c3" offset="0"/>
      <stop stop-color="#2ebf91" offset="1"/>
    </linearGradient>
  </defs>
  <g text-anchor="none" font-size="none" font-weight="none" font-family="none" stroke-dashoffset="0" stroke-miterlimit="10" fill-rule="nonzero" fill="url(#color-13041360795)">
    <path d="m0,238.15157l0,-8.92387l2.5217,0c0.48965,0 0.93646,0.06529 1.34042,0.19586c0.40396,0.13057 0.74672,0.31827 1.02826,0.5631c0.28155,0.24482 0.49985,0.54678 0.65491,0.90585c0.15506,0.35908 0.23258,0.76304 0.23258,1.21188c0,0.24482 -0.02448,0.48965 -0.07345,0.73447c-0.04896,0.24482 -0.12649,0.48149 -0.23258,0.70999c-0.10609,0.2285 -0.24482,0.43864 -0.4162,0.63042c-0.17138,0.19178 -0.3754,0.35704 -0.61206,0.49577c0.17954,0.28563 0.355,0.56514 0.52637,0.83853c0.17138,0.27339 0.3448,0.54882 0.52025,0.82628c0.17546,0.27747 0.35704,0.5631 0.54474,0.85689c0.1877,0.29379 0.39172,0.61206 0.61206,0.95482l-1.79946,0c-0.36724,-0.57126 -0.71407,-1.11191 -1.04051,-1.62196c-0.32643,-0.51005 -0.64063,-0.99358 -0.94258,-1.45059l-0.12241,0l-1.24861,0l0,3.07255l-1.49343,0.00001zm1.49343,-4.48029l1.19964,0c0.31011,0 0.56718,-0.05305 0.7712,-0.15914c0.20402,-0.10609 0.36724,-0.23462 0.48965,-0.3856c0.12241,-0.15098 0.2081,-0.31419 0.25707,-0.48965c0.04896,-0.17546 0.07345,-0.33663 0.07345,-0.48353c0,-0.13873 -0.02244,-0.29583 -0.06733,-0.47129c-0.04488,-0.17546 -0.12649,-0.34071 -0.24482,-0.49577c-0.11833,-0.15506 -0.27951,-0.28563 -0.48353,-0.39172c-0.20402,-0.10609 -0.46517,-0.15914 -0.78344,-0.15914l-1.21188,0l-0.00001,3.03584z"/>
    <path d="m10.33569,238.15157l0,-8.92387l5.92476,0l0,1.35878l-4.43133,0l0,2.39928l3.94168,0l0,1.3955l-3.94168,0l0,2.3748l4.60271,0l0,1.3955l-6.09614,0.00001z"/>
    <path d="m20.46328,229.2277l1.50567,0l0,8.92387l-1.50567,0l0,-8.92387z"/>
    <path d="m27.84883,229.2277l5.16581,0l-4.84753,7.4794l4.92098,0l0,1.44447l-7.54061,0c0.04896,-0.07345 0.15302,-0.23258 0.31215,-0.47741c0.15914,-0.24482 0.35296,-0.54474 0.58146,-0.89973c0.2285,-0.355 0.48149,-0.7508 0.75896,-1.1874c0.27747,-0.4366 0.55698,-0.87933 0.83853,-1.32818c0.28155,-0.44885 0.56106,-0.88953 0.83853,-1.32205c0.27747,-0.43252 0.53045,-0.82424 0.75896,-1.17516c0.2285,-0.35092 0.42232,-0.64879 0.58146,-0.89361c0.15914,-0.24482 0.26319,-0.39988 0.31215,-0.46517l-3.31738,0c-0.13057,0 -0.26115,-0.01836 -0.39172,-0.05509c-0.13057,-0.03672 -0.24687,-0.09181 -0.34888,-0.16526c-0.10201,-0.07345 -0.18566,-0.16118 -0.25095,-0.26319c-0.06529,-0.10201 -0.09793,-0.21422 -0.09793,-0.33663l0,-0.79568l1.3343,0l0,0.15914c0,0.16322 0.02856,0.25095 0.08569,0.26319c0.05713,0.01224 0.15914,0.01836 0.30603,0.01836l-0.00001,0z"/>
    <path d="m36.9604,238.15157l0,-8.92387l5.92476,0l0,1.35878l-4.43133,0l0,2.39928l3.94168,0l0,1.3955l-3.94168,0l0,2.3748l4.60271,0l0,1.3955l-6.09614,0.00001z"/>
    <path d="m54.97135,229.2277l0,9.34007c-0.05713,-0.07345 -0.18362,-0.2081 -0.37948,-0.40396c-0.19586,-0.19586 -0.4366,-0.43048 -0.72223,-0.70387c-0.28563,-0.27339 -0.60186,-0.57534 -0.9487,-0.90585c-0.34684,-0.33051 -0.69979,-0.66511 -1.05887,-1.00378c-0.35908,-0.33867 -0.70999,-0.67123 -1.05275,-0.99766c-0.34275,-0.32643 -0.65491,-0.62634 -0.93646,-0.89973c-0.28155,-0.27339 -0.51821,-0.50597 -0.70999,-0.69775c-0.19178,-0.19178 -0.31623,-0.32439 -0.37336,-0.39784c-0.00816,-0.01632 -0.0408,-0.05917 -0.09793,-0.12853c-0.05713,-0.06937 -0.10609,-0.13261 -0.14689,-0.18974l0.03672,0.39172l0,5.5208l-1.49343,0l0,-9.32783c0.05713,0.07345 0.18362,0.20606 0.37948,0.39784c0.19586,0.19178 0.4366,0.42232 0.72223,0.69163c0.28563,0.26931 0.60186,0.5631 0.9487,0.88137c0.34684,0.31827 0.69979,0.64267 1.05887,0.97318c0.35908,0.33051 0.70999,0.65695 1.05275,0.9793c0.34275,0.32235 0.65695,0.61614 0.94258,0.88137c0.28563,0.26523 0.52433,0.49169 0.71611,0.67939c0.19178,0.1877 0.31623,0.31827 0.37336,0.39172l0.23258,0.34275l-0.03672,-0.4162l0,-5.39839l1.49343,-0.00001z"/>
    <path d="m72.80276,229.2277l0,9.34007c-0.05713,-0.07345 -0.18362,-0.2081 -0.37948,-0.40396c-0.19586,-0.19586 -0.4366,-0.43048 -0.72223,-0.70387c-0.28563,-0.27339 -0.60186,-0.57534 -0.9487,-0.90585c-0.34684,-0.33051 -0.69979,-0.66511 -1.05887,-1.00378c-0.35908,-0.33867 -0.70999,-0.67123 -1.05275,-0.99766c-0.34275,-0.32643 -0.65491,-0.62634 -0.93646,-0.89973c-0.28155,-0.27339 -0.51821,-0.50597 -0.70999,-0.69775c-0.19178,-0.19178 -0.31623,-0.32439 -0.37336,-0.39784c-0.00816,-0.01632 -0.0408,-0.05917 -0.09793,-0.12853c-0.05713,-0.06937 -0.10609,-0.13261 -0.14689,-0.18974l0.03672,0.39172l0,5.5208l-1.49343,0l0,-9.32783c0.05713,0.07345 0.18362,0.20606 0.37948,0.39784c0.19586,0.19178 0.4366,0.42232 0.72223,0.69163c0.28563,0.26931 0.60186,0.5631 0.9487,0.88137c0.34684,0.31827 0.69979,0.64267 1.05887,0.97318c0.35908,0.33051 0.70999,0.65695 1.05275,0.9793c0.34275,0.32235 0.65695,0.61614 0.94258,0.88137c0.28563,0.26523 0.52433,0.49169 0.71611,0.67939c0.19178,0.1877 0.31623,0.31827 0.37336,0.39172l0.23258,0.34275l-0.03672,-0.4162l0,-5.39839l1.49343,-0.00001z"/>
    <path d="m82.89363,238.15157c-0.02448,-0.05713 -0.06733,-0.15914 -0.12853,-0.30603c-0.06121,-0.14689 -0.13669,-0.32643 -0.22646,-0.53861c-0.08977,-0.21218 -0.1877,-0.44681 -0.29379,-0.70387c-0.10609,-0.25707 -0.21626,-0.52433 -0.33051,-0.8018l-3.07255,0l-0.9793,2.35032l-1.48119,0c0.03264,-0.07345 0.11017,-0.25503 0.23258,-0.54474c0.12241,-0.28971 0.27543,-0.64879 0.45905,-1.07723c0.18362,-0.42844 0.38764,-0.90585 0.61206,-1.43223c0.22442,-0.52637 0.45497,-1.06295 0.69163,-1.60972c0.23666,-0.54678 0.46721,-1.08335 0.69163,-1.60972c0.22442,-0.52637 0.42844,-1.00378 0.61206,-1.43223c0.18362,-0.42844 0.33663,-0.78752 0.45905,-1.07723c0.12241,-0.28971 0.19994,-0.47129 0.23258,-0.54474c0.03264,0.07345 0.11221,0.25503 0.2387,0.54474c0.12649,0.28971 0.28155,0.64879 0.46517,1.07723c0.18362,0.42844 0.38764,0.90585 0.61206,1.43223c0.22442,0.52637 0.45497,1.06295 0.69163,1.60972c0.23666,0.54678 0.46721,1.08335 0.69163,1.60972c0.22442,0.52637 0.42844,1.00378 0.61206,1.43223c0.18362,0.42844 0.33663,0.78752 0.45905,1.07723c0.12241,0.28971 0.19994,0.47129 0.23258,0.54474l-1.48119,-0.00001zm-3.53772,-3.61117l2.03205,0l-0.88137,-2.12998c-0.00816,-0.00816 -0.02856,-0.06325 -0.06121,-0.16526c-0.03264,-0.10201 -0.05713,-0.19382 -0.07345,-0.27543c-0.01632,0.08161 -0.0408,0.17342 -0.07345,0.27543c-0.03264,0.10201 -0.04896,0.1571 -0.04896,0.16526l-0.89361,2.12998z"/>
    <path d="m93.43742,238.15157c-0.02448,-0.05713 -0.06733,-0.15914 -0.12853,-0.30603c-0.06121,-0.14689 -0.13669,-0.32643 -0.22646,-0.53861c-0.08977,-0.21218 -0.1877,-0.44681 -0.29379,-0.70387c-0.10609,-0.25707 -0.21626,-0.52433 -0.33051,-0.8018l-3.07255,0l-0.9793,2.35032l-1.48119,0c0.03264,-0.07345 0.11017,-0.25503 0.23258,-0.54474c0.12241,-0.28971 0.27543,-0.64879 0.45905,-1.07723c0.18362,-0.42844 0.38764,-0.90585 0.61206,-1.43223c0.22442,-0.52637 0.45497,-1.06295 0.69163,-1.60972c0.23666,-0.54678 0.46721,-1.08335 0.69163,-1.60972c0.22442,-0.52637 0.42844,-1.00378 0.61206,-1.43223c0.18362,-0.42844 0.33663,-0.78752 0.45905,-1.07723c0.12241,-0.28971 0.19994,-0.47129 0.23258,-0.54474c0.03264,0.07345 0.11221,0.25503 0.2387,0.54474c0.12649,0.28971 0.28155,0.64879 0.46517,1.07723c0.18362,0.42844 0.38764,0.90585 0.61206,1.43223c0.22442,0.52637 0.45497,1.06295 0.69163,1.60972c0.23666,0.54678 0.46721,1.08335 0.69163,1.60972c0.22442,0.52637 0.42844,1.00378 0.61206,1.43223c0.18362,0.42844 0.33663,0.78752 0.45905,1.07723c0.12241,0.28971 0.19994,0.47129 0.23258,0.54474l-1.48119,-0.00001zm-3.53772,-3.61117l2.03205,0l-0.88137,-2.12998c-0.00816,-0.00816 -0.02856,-0.06325 -0.06121,-0.16526c-0.03264,-0.10201 -0.05713,-0.19382 -0.07345,-0.27543c-0.01632,0.08161 -0.0408,0.17342 -0.07345,0.27543c-0.03264,0.10201 -0.04896,0.1571 -0.04896,0.16526l-0.89361,2.12998z"/>
    <path d="m98.49713,238.15157l0,-8.92387l2.5217,0c0.48965,0 0.93646,0.06529 1.34042,0.19586c0.40396,0.13057 0.74672,0.31827 1.02826,0.5631c0.28155,0.24482 0.49985,0.54678 0.65491,0.90585c0.15506,0.35908 0.23258,0.76304 0.23258,1.21188c0,0.24482 -0.02448,0.48965 -0.07345,0.73447c-0.04896,0.24482 -0.12649,0.48149 -0.23258,0.70999c-0.10609,0.2285 -0.24482,0.43864 -0.4162,0.63042c-0.17138,0.19178 -0.3754,0.35704 -0.61206,0.49577c0.17954,0.28563 0.355,0.56514 0.52637,0.83853c0.17138,0.27339 0.3448,0.54882 0.52025,0.82628c0.17546,0.27747 0.35704,0.5631 0.54474,0.85689c0.1877,0.29379 0.39172,0.61206 0.61206,0.95482l-1.79946,0c-0.36724,-0.57126 -0.71407,-1.11191 -1.04051,-1.62196c-0.32643,-0.51005 -0.64063,-0.99358 -0.94258,-1.45059l-0.12241,0l-1.24861,0l0,3.07255l-1.49343,0.00001zm1.49344,-4.48029l1.19964,0c0.31011,0 0.56718,-0.05305 0.7712,-0.15914c0.20402,-0.10609 0.36724,-0.23462 0.48965,-0.3856c0.12241,-0.15098 0.2081,-0.31419 0.25707,-0.48965c0.04896,-0.17546 0.07345,-0.33663 0.07345,-0.48353c0,-0.13873 -0.02244,-0.29583 -0.06733,-0.47129c-0.04488,-0.17546 -0.12649,-0.34071 -0.24482,-0.49577c-0.11833,-0.15506 -0.27951,-0.28563 -0.48353,-0.39172c-0.20402,-0.10609 -0.46517,-0.15914 -0.78344,-0.15914l-1.21188,0l-0.00001,3.03584z"/>
    <path d="m119.43782,229.7296l-0.53861,1.22412c-0.34275,-0.12241 -0.68143,-0.22034 -1.01602,-0.29379c-0.33459,-0.07345 -0.64471,-0.11017 -0.93033,-0.11017c-0.49781,0 -0.89157,0.09793 -1.18128,0.29379c-0.28971,0.19586 -0.43456,0.44477 -0.43456,0.74672c0,0.26115 0.10813,0.47333 0.32439,0.63654c0.21626,0.16322 0.48761,0.31011 0.81404,0.44068c0.32643,0.13057 0.67939,0.26319 1.05887,0.39784c0.37948,0.13465 0.73243,0.30807 1.05887,0.52025c0.32643,0.21218 0.59778,0.48149 0.81404,0.80792c0.21626,0.32643 0.32439,0.74264 0.32439,1.24861c0,0.39172 -0.07141,0.74672 -0.21422,1.06499c-0.14281,0.31827 -0.35704,0.59166 -0.64267,0.82016c-0.28563,0.2285 -0.64675,0.406 -1.08335,0.53249c-0.4366,0.12649 -0.9487,0.18974 -1.53628,0.18974c-0.35908,0 -0.68551,-0.02448 -0.9793,-0.07345c-0.29379,-0.04896 -0.55698,-0.11017 -0.78956,-0.18362c-0.23258,-0.07345 -0.43864,-0.15302 -0.61818,-0.2387c-0.17954,-0.08569 -0.33459,-0.16934 -0.46517,-0.25095l0.64879,-1.30981c0.34275,0.1877 0.70999,0.33255 1.10171,0.43456c0.39172,0.10201 0.73856,0.15302 1.04051,0.15302c0.14689,0 0.33663,-0.01632 0.56922,-0.04896c0.23258,-0.03264 0.45905,-0.09385 0.67939,-0.18362c0.22034,-0.08977 0.41008,-0.21218 0.56922,-0.36724c0.15914,-0.15506 0.2387,-0.355 0.2387,-0.59982c0,-0.28563 -0.10813,-0.52025 -0.32439,-0.70387c-0.21626,-0.18362 -0.48761,-0.34684 -0.81404,-0.48965c-0.32643,-0.14281 -0.67939,-0.28359 -1.05887,-0.42232c-0.37948,-0.13873 -0.73243,-0.30399 -1.05887,-0.49577c-0.32643,-0.19178 -0.59778,-0.42844 -0.81404,-0.70999c-0.21626,-0.28155 -0.32439,-0.63858 -0.32439,-1.07111c0,-0.31011 0.06121,-0.6141 0.18362,-0.91197c0.12241,-0.29787 0.30807,-0.56514 0.55698,-0.8018c0.24891,-0.23666 0.55902,-0.42844 0.93033,-0.57534c0.37132,-0.14689 0.80996,-0.22034 1.31593,-0.22034c0.31827,0 0.62634,0.02652 0.92421,0.07957c0.29787,0.05305 0.56514,0.11221 0.8018,0.1775c0.23666,0.06529 0.43252,0.12853 0.58758,0.18974c0.15506,0.06121 0.24891,0.09589 0.28155,0.10405l-0.00001,0z"/>
    <path d="m123.7141,238.15157l0,-8.92387l2.5217,0c0.48965,0 0.93646,0.06529 1.34042,0.19586c0.40396,0.13057 0.74672,0.31827 1.02826,0.5631c0.28155,0.24482 0.49985,0.54678 0.65491,0.90585c0.15506,0.35908 0.23258,0.76304 0.23258,1.21188c0,0.24482 -0.02448,0.48965 -0.07345,0.73447c-0.04896,0.24482 -0.12649,0.48149 -0.23258,0.70999c-0.10609,0.2285 -0.24482,0.43864 -0.4162,0.63042c-0.17138,0.19178 -0.3754,0.35704 -0.61206,0.49577c0.17954,0.28563 0.355,0.56514 0.52637,0.83853c0.17138,0.27339 0.3448,0.54882 0.52025,0.82628c0.17546,0.27747 0.35704,0.5631 0.54474,0.85689c0.1877,0.29379 0.39172,0.61206 0.61206,0.95482l-1.79946,0c-0.36724,-0.57126 -0.71407,-1.11191 -1.04051,-1.62196c-0.32643,-0.51005 -0.64063,-0.99358 -0.94258,-1.45059l-0.12241,0l-1.24861,0l0,3.07255l-1.49343,0.00001zm1.49343,-4.48029l1.19964,0c0.31011,0 0.56718,-0.05305 0.7712,-0.15914c0.20402,-0.10609 0.36724,-0.23462 0.48965,-0.3856c0.12241,-0.15098 0.2081,-0.31419 0.25707,-0.48965c0.04896,-0.17546 0.07345,-0.33663 0.07345,-0.48353c0,-0.13873 -0.02244,-0.29583 -0.06733,-0.47129c-0.04488,-0.17546 -0.12649,-0.34071 -0.24482,-0.49577c-0.11833,-0.15506 -0.27951,-0.28563 -0.48353,-0.39172c-0.20402,-0.10609 -0.46517,-0.15914 -0.78344,-0.15914l-1.21188,0l-0.00001,3.03584z"/>
    <path d="m134.04979,229.2277l1.50567,0l0,8.92387l-1.50567,0l0,-8.92387z"/>
    <path d="m145.50351,238.15157l0,-8.92387l1.49343,0l0,7.50388l4.3334,0l0,1.41998l-5.82683,0.00001z"/>
    <path d="m160.57657,238.15157c-0.02448,-0.05713 -0.06733,-0.15914 -0.12853,-0.30603c-0.06121,-0.14689 -0.13669,-0.32643 -0.22646,-0.53861c-0.08977,-0.21218 -0.1877,-0.44681 -0.29379,-0.70387c-0.10609,-0.25707 -0.21626,-0.52433 -0.33051,-0.8018l-3.07255,0l-0.9793,2.35032l-1.48119,0c0.03264,-0.07345 0.11017,-0.25503 0.23258,-0.54474c0.12241,-0.28971 0.27543,-0.64879 0.45905,-1.07723c0.18362,-0.42844 0.38764,-0.90585 0.61206,-1.43223c0.22442,-0.52637 0.45497,-1.06295 0.69163,-1.60972c0.23666,-0.54678 0.46721,-1.08335 0.69163,-1.60972c0.22442,-0.52637 0.42844,-1.00378 0.61206,-1.43223c0.18362,-0.42844 0.33663,-0.78752 0.45905,-1.07723c0.12241,-0.28971 0.19994,-0.47129 0.23258,-0.54474c0.03264,0.07345 0.11221,0.25503 0.2387,0.54474c0.12649,0.28971 0.28155,0.64879 0.46517,1.07723c0.18362,0.42844 0.38764,0.90585 0.61206,1.43223c0.22442,0.52637 0.45497,1.06295 0.69163,1.60972c0.23666,0.54678 0.46721,1.08335 0.69163,1.60972c0.22442,0.52637 0.42844,1.00378 0.61206,1.43223c0.18362,0.42844 0.33663,0.78752 0.45905,1.07723c0.12241,0.28971 0.19994,0.47129 0.23258,0.54474l-1.48119,-0.00001zm-3.53772,-3.61117l2.03205,0l-0.88137,-2.12998c-0.00816,-0.00816 -0.02856,-0.06325 -0.06121,-0.16526c-0.03264,-0.10201 -0.05713,-0.19382 -0.07345,-0.27543c-0.01632,0.08161 -0.0408,0.17342 -0.07345,0.27543c-0.03264,0.10201 -0.04896,0.1571 -0.04896,0.16526l-0.89361,2.12998z"/>
    <path d="m173.51964,229.2277l0,9.34007c-0.05713,-0.07345 -0.18362,-0.2081 -0.37948,-0.40396c-0.19586,-0.19586 -0.4366,-0.43048 -0.72223,-0.70387c-0.28563,-0.27339 -0.60186,-0.57534 -0.9487,-0.90585c-0.34684,-0.33051 -0.69979,-0.66511 -1.05887,-1.00378c-0.35908,-0.33867 -0.70999,-0.67123 -1.05275,-0.99766c-0.34275,-0.32643 -0.65491,-0.62634 -0.93646,-0.89973c-0.28155,-0.27339 -0.51821,-0.50597 -0.70999,-0.69775c-0.19178,-0.19178 -0.31623,-0.32439 -0.37336,-0.39784c-0.00816,-0.01632 -0.0408,-0.05917 -0.09793,-0.12853c-0.05713,-0.06937 -0.10609,-0.13261 -0.14689,-0.18974l0.03672,0.39172l0,5.5208l-1.49343,0l0,-9.32783c0.05713,0.07345 0.18362,0.20606 0.37948,0.39784c0.19586,0.19178 0.4366,0.42232 0.72223,0.69163c0.28563,0.26931 0.60186,0.5631 0.9487,0.88137c0.34684,0.31827 0.69979,0.64267 1.05887,0.97318c0.35908,0.33051 0.70999,0.65695 1.05275,0.9793c0.34275,0.32235 0.65695,0.61614 0.94258,0.88137c0.28563,0.26523 0.52433,0.49169 0.71611,0.67939c0.19178,0.1877 0.31623,0.31827 0.37336,0.39172l0.23258,0.34275l-0.03672,-0.4162l0,-5.39839l1.49343,-0.00001z"/>
    <path d="m183.35344,238.15157c-0.28563,-0.35092 -0.55086,-0.68959 -0.79568,-1.01602c-0.24482,-0.32643 -0.48965,-0.65083 -0.73447,-0.97318c-0.24482,-0.32235 -0.49169,-0.64879 -0.7406,-0.9793c-0.24891,-0.33051 -0.51209,-0.67531 -0.78956,-1.03439c-0.08977,0.09793 -0.17546,0.18566 -0.25707,0.26319c-0.08161,0.07753 -0.1673,0.1571 -0.25707,0.2387l0,3.501l-1.65257,0l0,-8.92387l1.65257,0l0,3.20721c0,0.06529 -0.00408,0.13465 -0.01224,0.2081c-0.00816,0.07345 -0.01632,0.14689 -0.02448,0.22034c0.0408,-0.05713 0.08365,-0.10813 0.12853,-0.15302c0.04488,-0.04488 0.08773,-0.09997 0.12853,-0.16526c0.55494,-0.53045 1.08743,-1.08131 1.59748,-1.65257c0.51005,-0.57126 1.04255,-1.12619 1.59748,-1.66481l1.89739,0c-0.61206,0.64471 -1.22004,1.29757 -1.82395,1.9586c-0.6039,0.66103 -1.2078,1.30981 -1.8117,1.94636c0.34275,0.44068 0.66715,0.86913 0.97318,1.28533c0.30603,0.4162 0.61002,0.82628 0.91197,1.23025c0.30195,0.40396 0.60594,0.812 0.91197,1.22412c0.30603,0.41212 0.62634,0.83853 0.96094,1.27921l-1.86065,0.00001z"/>
    <path d="m194.17878,238.15157c-0.02448,-0.05713 -0.06733,-0.15914 -0.12853,-0.30603c-0.06121,-0.14689 -0.13669,-0.32643 -0.22646,-0.53861c-0.08977,-0.21218 -0.1877,-0.44681 -0.29379,-0.70387c-0.10609,-0.25707 -0.21626,-0.52433 -0.33051,-0.8018l-3.07255,0l-0.9793,2.35032l-1.48119,0c0.03264,-0.07345 0.11017,-0.25503 0.23258,-0.54474c0.12241,-0.28971 0.27543,-0.64879 0.45905,-1.07723c0.18362,-0.42844 0.38764,-0.90585 0.61206,-1.43223c0.22442,-0.52637 0.45497,-1.06295 0.69163,-1.60972c0.23666,-0.54678 0.46721,-1.08335 0.69163,-1.60972c0.22442,-0.52637 0.42844,-1.00378 0.61206,-1.43223c0.18362,-0.42844 0.33663,-0.78752 0.45905,-1.07723c0.12241,-0.28971 0.19994,-0.47129 0.23258,-0.54474c0.03264,0.07345 0.11221,0.25503 0.2387,0.54474c0.12649,0.28971 0.28155,0.64879 0.46517,1.07723c0.18362,0.42844 0.38764,0.90585 0.61206,1.43223c0.22442,0.52637 0.45497,1.06295 0.69163,1.60972c0.23666,0.54678 0.46721,1.08335 0.69163,1.60972c0.22442,0.52637 0.42844,1.00378 0.61206,1.43223c0.18362,0.42844 0.33663,0.78752 0.45905,1.07723c0.12241,0.28971 0.19994,0.47129 0.23258,0.54474l-1.48119,-0.00001zm-3.53772,-3.61117l2.03205,0l-0.88137,-2.12998c-0.00816,-0.00816 -0.02856,-0.06325 -0.06121,-0.16526c-0.03264,-0.10201 -0.05713,-0.19382 -0.07345,-0.27543c-0.01632,0.08161 -0.0408,0.17342 -0.07345,0.27543c-0.03264,0.10201 -0.04896,0.1571 -0.04896,0.16526l-0.89361,2.12998z"/>
    <path d="m204.22477,228.83598c0.0408,0.05713 0.13057,0.18566 0.26931,0.3856c0.13873,0.19994 0.31215,0.44477 0.52025,0.73447c0.2081,0.28971 0.44068,0.61002 0.69775,0.96094c0.25707,0.35092 0.51821,0.70795 0.78344,1.07111c0.26523,0.36316 0.52433,0.71815 0.77732,1.06499c0.25299,0.34684 0.48149,0.66307 0.68551,0.9487c0.20402,0.28563 0.37744,0.52433 0.52025,0.71611c0.14281,0.19178 0.23054,0.31215 0.26319,0.36112c0.01632,-0.02448 0.08977,-0.12853 0.22034,-0.31215c0.13057,-0.18362 0.29583,-0.41416 0.49577,-0.69163c0.19994,-0.27747 0.4264,-0.5937 0.67939,-0.9487c0.25299,-0.355 0.51413,-0.71611 0.78344,-1.08335c0.26931,-0.36724 0.53249,-0.73039 0.78956,-1.08947c0.25707,-0.35908 0.49373,-0.68551 0.70999,-0.9793c0.21626,-0.29379 0.39784,-0.5427 0.54474,-0.74672c0.14689,-0.20402 0.24074,-0.33459 0.28155,-0.39172l0,9.31559l-1.6036,0l0,-4.55374c0,-0.06529 0.00816,-0.13465 0.02448,-0.2081c0.01632,-0.07345 0.02448,-0.11833 0.02448,-0.13465l-2.95014,4.24771c-0.0408,-0.04896 -0.14077,-0.18362 -0.29991,-0.40396c-0.15914,-0.22034 -0.34888,-0.48149 -0.56922,-0.78344c-0.22034,-0.30195 -0.45293,-0.62634 -0.69775,-0.97318c-0.24482,-0.34684 -0.47537,-0.66919 -0.69163,-0.96706c-0.21626,-0.29787 -0.39988,-0.55086 -0.55086,-0.75896c-0.15098,-0.2081 -0.23462,-0.32847 -0.25095,-0.36112c0,0.01632 0.00816,0.06121 0.02448,0.13465c0.01632,0.07345 0.02448,0.14281 0.02448,0.2081l0,4.55374l-1.50567,0l0.00001,-9.31558z"/>
    <path d="m223.33743,238.15157c-0.02448,-0.05713 -0.06733,-0.15914 -0.12853,-0.30603c-0.06121,-0.14689 -0.13669,-0.32643 -0.22646,-0.53861c-0.08977,-0.21218 -0.1877,-0.44681 -0.29379,-0.70387c-0.10609,-0.25707 -0.21626,-0.52433 -0.33051,-0.8018l-3.07255,0l-0.9793,2.35032l-1.48119,0c0.03264,-0.07345 0.11017,-0.25503 0.23258,-0.54474c0.12241,-0.28971 0.27543,-0.64879 0.45905,-1.07723c0.18362,-0.42844 0.38764,-0.90585 0.61206,-1.43223c0.22442,-0.52637 0.45497,-1.06295 0.69163,-1.60972c0.23666,-0.54678 0.46721,-1.08335 0.69163,-1.60972c0.22442,-0.52637 0.42844,-1.00378 0.61206,-1.43223c0.18362,-0.42844 0.33663,-0.78752 0.45905,-1.07723c0.12241,-0.28971 0.19994,-0.47129 0.23258,-0.54474c0.03264,0.07345 0.11221,0.25503 0.2387,0.54474c0.12649,0.28971 0.28155,0.64879 0.46517,1.07723c0.18362,0.42844 0.38764,0.90585 0.61206,1.43223c0.22442,0.52637 0.45497,1.06295 0.69163,1.60972c0.23666,0.54678 0.46721,1.08335 0.69163,1.60972c0.22442,0.52637 0.42844,1.00378 0.61206,1.43223c0.18362,0.42844 0.33663,0.78752 0.45905,1.07723c0.12241,0.28971 0.19994,0.47129 0.23258,0.54474l-1.48119,-0.00001zm-3.53772,-3.61117l2.03205,0l-0.88137,-2.12998c-0.00816,-0.00816 -0.02856,-0.06325 -0.06121,-0.16526c-0.03264,-0.10201 -0.05713,-0.19382 -0.07345,-0.27543c-0.01632,0.08161 -0.0408,0.17342 -0.07345,0.27543c-0.03264,0.10201 -0.04896,0.1571 -0.04896,0.16526l-0.89361,2.12998z"/>
    <path d="m233.62416,238.15157c-0.28563,-0.35092 -0.55086,-0.68959 -0.79568,-1.01602c-0.24482,-0.32643 -0.48965,-0.65083 -0.73447,-0.97318c-0.24482,-0.32235 -0.49169,-0.64879 -0.7406,-0.9793c-0.24891,-0.33051 -0.51209,-0.67531 -0.78956,-1.03439c-0.08977,0.09793 -0.17546,0.18566 -0.25707,0.26319c-0.08161,0.07753 -0.1673,0.1571 -0.25707,0.2387l0,3.501l-1.65257,0l0,-8.92387l1.65257,0l0,3.20721c0,0.06529 -0.00408,0.13465 -0.01224,0.2081c-0.00816,0.07345 -0.01632,0.14689 -0.02448,0.22034c0.0408,-0.05713 0.08365,-0.10813 0.12853,-0.15302c0.04488,-0.04488 0.08773,-0.09997 0.12853,-0.16526c0.55494,-0.53045 1.08743,-1.08131 1.59748,-1.65257c0.51005,-0.57126 1.04255,-1.12619 1.59748,-1.66481l1.89739,0c-0.61206,0.64471 -1.22004,1.29757 -1.82395,1.9586c-0.6039,0.66103 -1.2078,1.30981 -1.8117,1.94636c0.34275,0.44068 0.66715,0.86913 0.97318,1.28533c0.30603,0.4162 0.61002,0.82628 0.91197,1.23025c0.30195,0.40396 0.60594,0.812 0.91197,1.22412c0.30603,0.41212 0.62634,0.83853 0.96094,1.27921l-1.86065,0.00001z"/>
    <path d="m244.19243,238.15157c-0.28563,-0.35092 -0.55086,-0.68959 -0.79568,-1.01602c-0.24482,-0.32643 -0.48965,-0.65083 -0.73447,-0.97318c-0.24482,-0.32235 -0.49169,-0.64879 -0.7406,-0.9793c-0.24891,-0.33051 -0.51209,-0.67531 -0.78956,-1.03439c-0.08977,0.09793 -0.17546,0.18566 -0.25707,0.26319c-0.08161,0.07753 -0.1673,0.1571 -0.25707,0.2387l0,3.501l-1.65257,0l0,-8.92387l1.65257,0l0,3.20721c0,0.06529 -0.00408,0.13465 -0.01224,0.2081c-0.00816,0.07345 -0.01632,0.14689 -0.02448,0.22034c0.0408,-0.05713 0.08365,-0.10813 0.12853,-0.15302c0.04488,-0.04488 0.08773,-0.09997 0.12853,-0.16526c0.55494,-0.53045 1.08743,-1.08131 1.59748,-1.65257c0.51005,-0.57126 1.04255,-1.12619 1.59748,-1.66481l1.89739,0c-0.61206,0.64471 -1.22004,1.29757 -1.82395,1.9586c-0.6039,0.66103 -1.2078,1.30981 -1.8117,1.94636c0.34275,0.44068 0.66715,0.86913 0.97318,1.28533c0.30603,0.4162 0.61002,0.82628 0.91197,1.23025c0.30195,0.40396 0.60594,0.812 0.91197,1.22412c0.30603,0.41212 0.62634,0.83853 0.96094,1.27921l-1.86065,0.00001z"/>
    <path d="m249.53369,238.15157l0,-8.92387l5.92476,0l0,1.35878l-4.43133,0l0,2.39928l3.94168,0l0,1.3955l-3.94168,0l0,2.3748l4.60271,0l0,1.3955l-6.09614,0.00001z"/>
    <path d="m259.66128,238.15157l0,-8.92387l1.49343,0l0,7.50388l4.3334,0l0,1.41998l-5.82683,0.00001z"/>
    <path d="m269.25026,229.2277l1.50567,0l0,8.92387l-1.50567,0l0,-8.92387z"/>
    <path d="m274.08963,240l0,-1.41998c0.27747,-0.01632 0.53453,-0.06937 0.7712,-0.15914c0.23666,-0.08977 0.44068,-0.22238 0.61206,-0.39784c0.17138,-0.17546 0.30399,-0.39988 0.39784,-0.67327c0.09385,-0.27339 0.14077,-0.59778 0.14077,-0.97318l0,-7.14889l1.51791,0l0,7.18561c0,0.5631 -0.08773,1.06295 -0.26319,1.49955c-0.17546,0.4366 -0.4162,0.80792 -0.72223,1.11395c-0.30603,0.30603 -0.66919,0.54065 -1.08947,0.70387c-0.42028,0.16322 -0.87525,0.25299 -1.3649,0.26931l0.00001,0.00001z"/>
    <path d="m287.3265,238.15157c-0.28563,-0.35092 -0.55086,-0.68959 -0.79568,-1.01602c-0.24482,-0.32643 -0.48965,-0.65083 -0.73447,-0.97318c-0.24482,-0.32235 -0.49169,-0.64879 -0.7406,-0.9793c-0.24891,-0.33051 -0.51209,-0.67531 -0.78956,-1.03439c-0.08977,0.09793 -0.17546,0.18566 -0.25707,0.26319c-0.08161,0.07753 -0.1673,0.1571 -0.25707,0.2387l0,3.501l-1.65257,0l0,-8.92387l1.65257,0l0,3.20721c0,0.06529 -0.00408,0.13465 -0.01224,0.2081c-0.00816,0.07345 -0.01632,0.14689 -0.02448,0.22034c0.0408,-0.05713 0.08365,-0.10813 0.12853,-0.15302c0.04488,-0.04488 0.08773,-0.09997 0.12853,-0.16526c0.55494,-0.53045 1.08743,-1.08131 1.59748,-1.65257c0.51005,-0.57126 1.04255,-1.12619 1.59748,-1.66481l1.89739,0c-0.61206,0.64471 -1.22004,1.29757 -1.82395,1.9586c-0.6039,0.66103 -1.2078,1.30981 -1.8117,1.94636c0.34275,0.44068 0.66715,0.86913 0.97318,1.28533c0.30603,0.4162 0.61002,0.82628 0.91197,1.23025c0.30195,0.40396 0.60594,0.812 0.91197,1.22412c0.30603,0.41212 0.62634,0.83853 0.96094,1.27921l-1.86065,0.00001z"/>
    <path d="m304.59481,233.81817l0,3.79479c-0.34275,0.20402 -0.75692,0.36112 -1.24249,0.47129c-0.48557,0.11017 -0.98134,0.16526 -1.48731,0.16526c-0.70183,0 -1.33634,-0.11017 -1.90351,-0.33051c-0.56718,-0.22034 -1.05071,-0.52229 -1.45059,-0.90585c-0.39988,-0.38356 -0.70591,-0.84057 -0.91809,-1.37102c-0.21218,-0.53045 -0.31827,-1.10987 -0.31827,-1.73826c0,-0.70999 0.12649,-1.35674 0.37948,-1.94024c0.25299,-0.5835 0.5937,-1.08539 1.02214,-1.50567c0.42844,-0.42028 0.92625,-0.74672 1.49343,-0.9793c0.56718,-0.23258 1.16496,-0.34888 1.79334,-0.34888c0.21218,0 0.43456,0.01428 0.66715,0.04284c0.23258,0.02856 0.46313,0.07141 0.69163,0.12853c0.2285,0.05713 0.44885,0.12445 0.66103,0.20198c0.21218,0.07753 0.40396,0.16934 0.57534,0.27543l-0.73447,1.22412c-0.11425,-0.07345 -0.25095,-0.13669 -0.41008,-0.18974c-0.15914,-0.05305 -0.32439,-0.09997 -0.49577,-0.14077c-0.17138,-0.0408 -0.34071,-0.07141 -0.50801,-0.09181c-0.1673,-0.0204 -0.32439,-0.0306 -0.47129,-0.0306c-0.4162,0 -0.81404,0.08365 -1.19352,0.25095c-0.37948,0.1673 -0.71611,0.39376 -1.0099,0.67939c-0.29379,0.28563 -0.52841,0.62634 -0.70387,1.02214c-0.17546,0.3958 -0.26319,0.81812 -0.26319,1.26697c0,0.40804 0.07753,0.79568 0.23258,1.16292c0.15506,0.36724 0.37132,0.69163 0.64879,0.97318c0.27747,0.28155 0.60798,0.50597 0.99154,0.67327c0.38356,0.1673 0.80384,0.25095 1.26085,0.25095c0.16322,0 0.36724,-0.01428 0.61206,-0.04284c0.24482,-0.02856 0.47741,-0.07957 0.69775,-0.15302l0,-1.51791l-1.66481,0l0,-1.29757l3.04806,-0.00002z"/>
    <path d="m308.82212,238.15157l0,-8.92387l5.92476,0l0,1.35878l-4.43133,0l0,2.39928l3.94168,0l0,1.3955l-3.94168,0l0,2.3748l4.60271,0l0,1.3955l-6.09614,0.00001z"/>
    <path d="m318.94971,228.83598c0.0408,0.05713 0.13057,0.18566 0.26931,0.3856c0.13873,0.19994 0.31215,0.44477 0.52025,0.73447c0.2081,0.28971 0.44068,0.61002 0.69775,0.96094c0.25707,0.35092 0.51821,0.70795 0.78344,1.07111c0.26523,0.36316 0.52433,0.71815 0.77732,1.06499c0.25299,0.34684 0.48149,0.66307 0.68551,0.9487c0.20402,0.28563 0.37744,0.52433 0.52025,0.71611c0.14281,0.19178 0.23054,0.31215 0.26319,0.36112c0.01632,-0.02448 0.08977,-0.12853 0.22034,-0.31215c0.13057,-0.18362 0.29583,-0.41416 0.49577,-0.69163c0.19994,-0.27747 0.4264,-0.5937 0.67939,-0.9487c0.25299,-0.355 0.51413,-0.71611 0.78344,-1.08335c0.26931,-0.36724 0.53249,-0.73039 0.78956,-1.08947c0.25707,-0.35908 0.49373,-0.68551 0.70999,-0.9793c0.21626,-0.29379 0.39784,-0.5427 0.54474,-0.74672c0.14689,-0.20402 0.24074,-0.33459 0.28155,-0.39172l0,9.31559l-1.6036,0l0,-4.55374c0,-0.06529 0.00816,-0.13465 0.02448,-0.2081c0.01632,-0.07345 0.02448,-0.11833 0.02448,-0.13465l-2.95014,4.24771c-0.0408,-0.04896 -0.14077,-0.18362 -0.29991,-0.40396c-0.15914,-0.22034 -0.34888,-0.48149 -0.56922,-0.78344c-0.22034,-0.30195 -0.45293,-0.62634 -0.69775,-0.97318c-0.24482,-0.34684 -0.47537,-0.66919 -0.69163,-0.96706c-0.21626,-0.29787 -0.39988,-0.55086 -0.55086,-0.75896c-0.15098,-0.2081 -0.23462,-0.32847 -0.25095,-0.36112c0,0.01632 0.00816,0.06121 0.02448,0.13465c0.01632,0.07345 0.02448,0.14281 0.02448,0.2081l0,4.55374l-1.50567,0l0.00001,-9.31558z"/>
    <path d="m338.06238,238.15157c-0.02448,-0.05713 -0.06733,-0.15914 -0.12853,-0.30603c-0.06121,-0.14689 -0.13669,-0.32643 -0.22646,-0.53861c-0.08977,-0.21218 -0.1877,-0.44681 -0.29379,-0.70387c-0.10609,-0.25707 -0.21626,-0.52433 -0.33051,-0.8018l-3.07255,0l-0.9793,2.35032l-1.48119,0c0.03264,-0.07345 0.11017,-0.25503 0.23258,-0.54474c0.12241,-0.28971 0.27543,-0.64879 0.45905,-1.07723c0.18362,-0.42844 0.38764,-0.90585 0.61206,-1.43223c0.22442,-0.52637 0.45497,-1.06295 0.69163,-1.60972c0.23666,-0.54678 0.46721,-1.08335 0.69163,-1.60972c0.22442,-0.52637 0.42844,-1.00378 0.61206,-1.43223c0.18362,-0.42844 0.33663,-0.78752 0.45905,-1.07723c0.12241,-0.28971 0.19994,-0.47129 0.23258,-0.54474c0.03264,0.07345 0.11221,0.25503 0.2387,0.54474c0.12649,0.28971 0.28155,0.64879 0.46517,1.07723c0.18362,0.42844 0.38764,0.90585 0.61206,1.43223c0.22442,0.52637 0.45497,1.06295 0.69163,1.60972c0.23666,0.54678 0.46721,1.08335 0.69163,1.60972c0.22442,0.52637 0.42844,1.00378 0.61206,1.43223c0.18362,0.42844 0.33663,0.78752 0.45905,1.07723c0.12241,0.28971 0.19994,0.47129 0.23258,0.54474l-1.48119,-0.00001zm-3.53772,-3.61117l2.03205,0l-0.88137,-2.12998c-0.00816,-0.00816 -0.02856,-0.06325 -0.06121,-0.16526c-0.03264,-0.10201 -0.05713,-0.19382 -0.07345,-0.27543c-0.01632,0.08161 -0.0408,0.17342 -0.07345,0.27543c-0.03264,0.10201 -0.04896,0.1571 -0.04896,0.16526l-0.89361,2.12998z"/>
    <path d="m348.60617,238.15157c-0.02448,-0.05713 -0.06733,-0.15914 -0.12853,-0.30603c-0.06121,-0.14689 -0.13669,-0.32643 -0.22646,-0.53861c-0.08977,-0.21218 -0.1877,-0.44681 -0.29379,-0.70387c-0.10609,-0.25707 -0.21626,-0.52433 -0.33051,-0.8018l-3.07255,0l-0.9793,2.35032l-1.48119,0c0.03264,-0.07345 0.11017,-0.25503 0.23258,-0.54474c0.12241,-0.28971 0.27543,-0.64879 0.45905,-1.07723c0.18362,-0.42844 0.38764,-0.90585 0.61206,-1.43223c0.22442,-0.52637 0.45497,-1.06295 0.69163,-1.60972c0.23666,-0.54678 0.46721,-1.08335 0.69163,-1.60972c0.22442,-0.52637 0.42844,-1.00378 0.61206,-1.43223c0.18362,-0.42844 0.33663,-0.78752 0.45905,-1.07723c0.12241,-0.28971 0.19994,-0.47129 0.23258,-0.54474c0.03264,0.07345 0.11221,0.25503 0.2387,0.54474c0.12649,0.28971 0.28155,0.64879 0.46517,1.07723c0.18362,0.42844 0.38764,0.90585 0.61206,1.43223c0.22442,0.52637 0.45497,1.06295 0.69163,1.60972c0.23666,0.54678 0.46721,1.08335 0.69163,1.60972c0.22442,0.52637 0.42844,1.00378 0.61206,1.43223c0.18362,0.42844 0.33663,0.78752 0.45905,1.07723c0.12241,0.28971 0.19994,0.47129 0.23258,0.54474l-1.48119,-0.00001zm-3.53772,-3.61117l2.03205,0l-0.88137,-2.12998c-0.00816,-0.00816 -0.02856,-0.06325 -0.06121,-0.16526c-0.03264,-0.10201 -0.05713,-0.19382 -0.07345,-0.27543c-0.01632,0.08161 -0.0408,0.17342 -0.07345,0.27543c-0.03264,0.10201 -0.04896,0.1571 -0.04896,0.16526l-0.89361,2.12998z"/>
    <path d="m358.89289,238.15157c-0.28563,-0.35092 -0.55086,-0.68959 -0.79568,-1.01602c-0.24482,-0.32643 -0.48965,-0.65083 -0.73447,-0.97318c-0.24482,-0.32235 -0.49169,-0.64879 -0.7406,-0.9793c-0.24891,-0.33051 -0.51209,-0.67531 -0.78956,-1.03439c-0.08977,0.09793 -0.17546,0.18566 -0.25707,0.26319c-0.08161,0.07753 -0.1673,0.1571 -0.25707,0.2387l0,3.501l-1.65257,0l0,-8.92387l1.65257,0l0,3.20721c0,0.06529 -0.00408,0.13465 -0.01224,0.2081c-0.00816,0.07345 -0.01632,0.14689 -0.02448,0.22034c0.0408,-0.05713 0.08365,-0.10813 0.12853,-0.15302c0.04488,-0.04488 0.08773,-0.09997 0.12853,-0.16526c0.55494,-0.53045 1.08743,-1.08131 1.59748,-1.65257c0.51005,-0.57126 1.04255,-1.12619 1.59748,-1.66481l1.89739,0c-0.61206,0.64471 -1.22004,1.29757 -1.82395,1.9586c-0.6039,0.66103 -1.2078,1.30981 -1.8117,1.94636c0.34275,0.44068 0.66715,0.86913 0.97318,1.28533c0.30603,0.4162 0.61002,0.82628 0.91197,1.23025c0.30195,0.40396 0.60594,0.812 0.91197,1.22412c0.30603,0.41212 0.62634,0.83853 0.96094,1.27921l-1.86065,0.00001z"/>
    <path d="m369.58358,229.2277l0,1.43223l-2.20342,0l0,7.49164l-1.50567,0l0,-7.49164l-2.15446,0l0,-1.43223l5.86355,0z"/>
    <path d="m0,208.97363c2.6039,5.94368 7.18902,8.54758 12.67985,8.54758c7.18902,0 12.79306,-3.90585 12.79306,-10.81183c0,-4.75494 -2.83032,-8.20794 -12.84967,-12.05718c-7.18902,-2.77372 -9.50989,-4.69834 -9.50989,-8.94382c0,-4.92476 4.30209,-7.30223 9.34007,-7.30223c4.86816,0 8.43436,2.15105 10.92505,6.00028l1.86801,-1.47177c-2.83032,-4.3587 -7.24563,-6.67956 -12.62324,-6.67956c-6.62296,0 -12.00057,3.16996 -12.00057,9.6797c0,4.64173 2.71711,7.9249 10.5288,10.75523c9.00043,3.28317 11.83075,6.1701 11.83075,9.79292c0,5.43422 -3.79263,8.88721 -10.18916,8.88721c-5.09458,0 -8.88721,-2.6605 -10.69862,-7.64187l-2.09444,1.24534z"/>
    <path d="m59.88963,216.78532l-11.15147,-17.83104c6.67956,0 10.98165,-4.98137 10.98165,-10.98165c0,-6.00028 -4.13227,-10.98165 -10.5288,-10.98165l-16.6423,0l0,39.79434l2.37747,0l0,-17.83104l10.98165,0l11.15147,17.83104l2.83033,0zm-24.96344,-19.98208l0,-17.66122l14.09501,0c5.03798,0 8.20794,4.01906 8.20794,8.83061c0,4.81155 -3.16996,8.83061 -8.20794,8.83061l-14.09501,0z"/>
    <path d="m69.05988,216.78532l0,-39.79434l-2.37747,0l0,39.79434l2.37747,0z"/>
    <path d="m113.83559,216.78532l0,-2.15105l-20.32172,0l0,-37.6433l-2.37747,0l0,39.79434l22.69919,0.00001z"/>
    <path d="m147.1768,216.78532l-14.20822,-39.79434l-2.6605,0l-14.20822,39.79434l2.49068,0l4.07567,-11.49111l17.94425,0l4.07567,11.49111l2.49067,0zm-7.24563,-13.52894l-16.58569,0l8.26454,-23.37847l8.32115,23.37847z"/>
    <path d="m180.85764,216.78532l0,-39.79434l-2.37747,0l0,36.05832l-23.32186,-36.05832l-2.6039,0l0,39.79434l2.37747,0l0,-36.00171l23.26526,36.00171l2.6605,0z"/>
    <path d="m217.2556,216.78532l-14.49125,-24.11435l13.81198,-15.67999l-2.88693,0l-21.96331,25.13327l0,-25.13327l-2.37747,0l0,39.79434l2.37747,0l0,-11.49111l9.50989,-10.81183l13.35912,22.30295l2.6605,-0.00001z"/>
    <path d="m250.87983,216.78532l-14.20822,-39.79434l-2.6605,0l-14.20822,39.79434l2.49068,0l4.07567,-11.49111l17.94425,0l4.07567,11.49111l2.49067,0zm-7.24562,-13.52894l-16.58569,0l8.26454,-23.37847l8.32115,23.37847z"/>
    <path d="m297.18392,216.78532l-11.15147,-17.83104c6.67956,0 10.98165,-4.98137 10.98165,-10.98165c0,-6.00028 -4.13227,-10.98165 -10.5288,-10.98165l-16.6423,0l0,39.79434l2.37747,0l0,-17.83104l10.98165,0l11.15147,17.83104l2.83033,0zm-24.96345,-19.98208l0,-17.66122l14.09501,0c5.03798,0 8.20794,4.01906 8.20794,8.83061c0,4.81155 -3.16996,8.83061 -8.20794,8.83061l-14.09501,0z"/>
    <path d="m328.99675,216.78532l0,-2.15105l-22.64258,0l0,-17.60461l16.35927,0l0,-2.15105l-16.35927,0l0,-15.7366l21.51046,0l0,-2.15105l-23.88793,0l0,39.79434l25.02005,0.00002z"/>
    <path d="m337.60093,216.78532l0,-39.79434l-2.37747,0l0,39.79434l2.37747,0z"/>
    <path d="m344.11067,208.97363c2.6039,5.94368 7.18902,8.54758 12.67985,8.54758c7.18902,0 12.79306,-3.90585 12.79306,-10.81183c0,-4.75494 -2.83032,-8.20794 -12.84967,-12.05718c-7.18902,-2.77372 -9.50989,-4.69834 -9.50989,-8.94382c0,-4.92476 4.30209,-7.30223 9.34007,-7.30223c4.86816,0 8.43436,2.15105 10.92505,6.00028l1.86801,-1.47177c-2.83032,-4.3587 -7.24563,-6.67956 -12.62324,-6.67956c-6.62296,0 -12.00057,3.16996 -12.00057,9.6797c0,4.64173 2.71711,7.9249 10.5288,10.75523c9.00043,3.28317 11.83075,6.1701 11.83075,9.79292c0,5.43422 -3.79263,8.88721 -10.18916,8.88721c-5.09458,0 -8.88721,-2.6605 -10.69862,-7.64187l-2.09444,1.24534z"/>
    <path d="m159.6225,4.18536c-26.79154,11.27205 -44.59812,34.4696 -46.8852,62.40469l37.5735,0.32672l0,61.58787c-13.06904,-9.14833 -23.36092,-23.68764 -26.79154,-39.04377l-9.47506,0c5.71771,26.13809 21.40056,44.10802 45.57829,54.23653l0.16337,-86.25569l-35.93987,0c3.59399,-14.86604 13.72249,-29.07862 26.46481,-38.06359l0,27.60835l9.47506,0l-0.16336,-42.80111zm16.41461,5.28918c3.05112,-0.32117 6.10225,-0.48176 8.99278,-0.48176l0,-8.99278c-4.97815,0 -14.45269,0.64234 -18.14615,1.60585l0,143.88454c11.56215,3.05112 21.67903,3.21171 35.48938,0.32117l-1.60585,-8.8322c-8.99278,2.2482 -15.4162,2.2482 -24.73015,0.96352l-0.00001,-128.46834zm33.43388,134.22286l9.63842,-4.73753l-0.16337,-70.57284l13.88586,0l14.04923,14.53931c-1.14354,9.96515 -5.06425,19.93029 -11.76214,29.73207l0,14.37595c13.23241,-13.55913 21.72728,-33.48943 21.72728,-48.51883l-15.68285,-15.35612l13.06904,-10.94532c-6.37116,-20.25702 -26.13809,-43.12784 -44.76147,-48.02874l0,139.51205zm9.47506,-123.50246c10.12851,7.18798 19.11348,17.15312 23.85101,28.09844l-11.9255,10.78196l-11.9255,0l-0.00001,-38.8804z"/>
  </g>
</svg>