<?xml version="1.0" encoding="utf-8"?>
<svg viewBox="112.737 0 953.7621 140.0002" xmlns="http://www.w3.org/2000/svg">
  <defs>
    <linearGradient id="color-13041360795" y2="0.5" x2="1" y1="0.5" x1="0">
      <stop stop-color="#8360c3" offset="0"/>
      <stop stop-color="#2ebf91" offset="1"/>
    </linearGradient>
  </defs>
  <g transform="matrix(2.1962509155273438, 0, 0, 2.1962509155273438, -343.8915710449219, -79.07820892333984)">
    <path d="M 272.597 97.902 L 272.597 88.978 L 275.119 88.978 C 275.609 88.978 276.056 89.044 276.46 89.174 C 276.863 89.305 277.206 89.492 277.488 89.737 C 277.769 89.982 277.988 90.284 278.143 90.643 C 278.298 91.002 278.375 91.406 278.375 91.855 C 278.375 92.1 278.351 92.345 278.302 92.589 C 278.253 92.834 278.175 93.071 278.069 93.299 C 277.963 93.528 277.824 93.738 277.653 93.93 C 277.482 94.122 277.278 94.287 277.041 94.426 C 277.221 94.711 277.396 94.991 277.567 95.264 C 277.739 95.538 277.912 95.813 278.088 96.09 C 278.263 96.368 278.445 96.654 278.632 96.947 C 278.82 97.241 279.024 97.559 279.244 97.902 L 277.445 97.902 C 277.078 97.331 276.731 96.79 276.404 96.28 C 276.078 95.77 275.764 95.287 275.462 94.83 L 275.339 94.83 L 274.091 94.83 L 274.091 97.902 L 272.597 97.902 L 272.597 97.902 Z M 274.091 93.422 L 275.29 93.422 C 275.601 93.422 275.858 93.369 276.062 93.263 C 276.266 93.157 276.429 93.028 276.551 92.877 C 276.674 92.726 276.759 92.563 276.808 92.388 C 276.857 92.212 276.882 92.051 276.882 91.904 C 276.882 91.765 276.859 91.608 276.814 91.433 C 276.77 91.257 276.688 91.092 276.57 90.937 C 276.451 90.782 276.29 90.651 276.086 90.545 C 275.882 90.439 275.621 90.386 275.303 90.386 L 274.091 90.386 L 274.091 93.422 L 274.091 93.422 Z" text-anchor="none" font-size="none" font-weight="none" font-family="none" stroke-dashoffset="0" stroke-miterlimit="10" fill-rule="nonzero" fill="url(#color-13041360795)"/>
    <path d="M 282.933 97.902 L 282.933 88.978 L 288.858 88.978 L 288.858 90.337 L 284.427 90.337 L 284.427 92.736 L 288.368 92.736 L 288.368 94.132 L 284.427 94.132 L 284.427 96.507 L 289.029 96.507 L 289.029 97.902 L 282.933 97.902 L 282.933 97.902 Z" text-anchor="none" font-size="none" font-weight="none" font-family="none" stroke-dashoffset="0" stroke-miterlimit="10" fill-rule="nonzero" fill="url(#color-13041360795)"/>
    <path d="M 293.061 88.978 L 294.566 88.978 L 294.566 97.902 L 293.061 97.902 L 293.061 88.978 Z" text-anchor="none" font-size="none" font-weight="none" font-family="none" stroke-dashoffset="0" stroke-miterlimit="10" fill-rule="nonzero" fill="url(#color-13041360795)"/>
    <path d="M 300.446 88.978 L 305.612 88.978 L 300.764 96.458 L 305.685 96.458 L 305.685 97.902 L 298.145 97.902 C 298.194 97.829 298.298 97.67 298.457 97.425 C 298.616 97.18 298.81 96.88 299.038 96.525 C 299.267 96.17 299.52 95.774 299.797 95.338 C 300.075 94.901 300.354 94.458 300.636 94.009 C 300.918 93.561 301.197 93.12 301.474 92.687 C 301.752 92.255 302.005 91.863 302.233 91.512 C 302.462 91.161 302.656 90.863 302.815 90.619 C 302.974 90.374 303.078 90.219 303.127 90.153 L 299.81 90.153 C 299.679 90.153 299.549 90.135 299.418 90.098 C 299.287 90.062 299.171 90.007 299.069 89.933 C 298.967 89.86 298.883 89.772 298.818 89.67 C 298.753 89.568 298.72 89.456 298.72 89.333 L 298.72 88.538 L 300.055 88.538 L 300.055 88.697 C 300.055 88.86 300.083 88.948 300.14 88.96 C 300.197 88.972 300.299 88.978 300.446 88.978 L 300.446 88.978 L 300.446 88.978 Z" text-anchor="none" font-size="none" font-weight="none" font-family="none" stroke-dashoffset="0" stroke-miterlimit="10" fill-rule="nonzero" fill="url(#color-13041360795)"/>
    <path d="M 309.558 97.902 L 309.558 88.978 L 315.483 88.978 L 315.483 90.337 L 311.051 90.337 L 311.051 92.736 L 314.993 92.736 L 314.993 94.132 L 311.051 94.132 L 311.051 96.507 L 315.654 96.507 L 315.654 97.902 L 309.558 97.902 Z" text-anchor="none" font-size="none" font-weight="none" font-family="none" stroke-dashoffset="0" stroke-miterlimit="10" fill-rule="nonzero" fill="url(#color-13041360795)"/>
    <path d="M 327.569 88.978 L 327.569 98.318 C 327.512 98.245 327.385 98.11 327.189 97.914 C 326.993 97.719 326.753 97.484 326.467 97.211 C 326.181 96.937 325.865 96.635 325.518 96.305 C 325.171 95.974 324.819 95.64 324.459 95.301 C 324.1 94.962 323.749 94.63 323.407 94.303 C 323.064 93.977 322.752 93.677 322.47 93.404 C 322.189 93.13 321.952 92.898 321.76 92.706 C 321.568 92.514 321.444 92.381 321.387 92.308 C 321.379 92.292 321.346 92.249 321.289 92.179 C 321.232 92.11 321.183 92.047 321.142 91.99 L 321.179 92.381 L 321.179 97.902 L 319.685 97.902 L 319.685 88.574 C 319.742 88.648 319.869 88.78 320.065 88.972 C 320.261 89.164 320.501 89.395 320.787 89.664 C 321.073 89.933 321.389 90.227 321.736 90.545 C 322.083 90.863 322.436 91.188 322.795 91.518 C 323.154 91.849 323.505 92.175 323.847 92.498 C 324.19 92.82 324.504 93.114 324.79 93.379 C 325.076 93.644 325.314 93.871 325.506 94.058 C 325.698 94.246 325.822 94.377 325.879 94.45 L 326.112 94.793 L 326.075 94.377 L 326.075 88.978 L 327.569 88.978 L 327.569 88.978 Z" text-anchor="none" font-size="none" font-weight="none" font-family="none" stroke-dashoffset="0" stroke-miterlimit="10" fill-rule="nonzero" fill="url(#color-13041360795)"/>
    <path d="M 345.4 88.978 L 345.4 98.318 C 345.343 98.245 345.217 98.11 345.021 97.914 C 344.825 97.719 344.584 97.484 344.298 97.211 C 344.013 96.937 343.697 96.635 343.35 96.305 C 343.003 95.974 342.65 95.64 342.291 95.301 C 341.932 94.962 341.581 94.63 341.238 94.303 C 340.895 93.977 340.583 93.677 340.302 93.404 C 340.02 93.13 339.783 92.898 339.592 92.706 C 339.4 92.514 339.275 92.381 339.218 92.308 C 339.21 92.292 339.178 92.249 339.12 92.179 C 339.063 92.11 339.014 92.047 338.973 91.99 L 339.01 92.381 L 339.01 97.902 L 337.517 97.902 L 337.517 88.574 C 337.574 88.648 337.7 88.78 337.896 88.972 C 338.092 89.164 338.333 89.395 338.618 89.664 C 338.904 89.933 339.22 90.227 339.567 90.545 C 339.914 90.863 340.267 91.188 340.626 91.518 C 340.985 91.849 341.336 92.175 341.679 92.498 C 342.022 92.82 342.336 93.114 342.621 93.379 C 342.907 93.644 343.146 93.871 343.337 94.058 C 343.529 94.246 343.654 94.377 343.711 94.45 L 343.943 94.793 L 343.907 94.377 L 343.907 88.978 L 345.4 88.978 L 345.4 88.978 Z" text-anchor="none" font-size="none" font-weight="none" font-family="none" stroke-dashoffset="0" stroke-miterlimit="10" fill-rule="nonzero" fill="url(#color-13041360795)"/>
    <path d="M 355.491 97.902 C 355.467 97.845 355.424 97.743 355.362 97.596 C 355.301 97.449 355.226 97.27 355.136 97.058 C 355.046 96.845 354.948 96.611 354.842 96.354 C 354.736 96.097 354.626 95.829 354.512 95.552 L 351.439 95.552 L 350.46 97.902 L 348.979 97.902 C 349.011 97.829 349.089 97.647 349.211 97.357 C 349.334 97.068 349.487 96.709 349.67 96.28 C 349.854 95.852 350.058 95.374 350.282 94.848 C 350.507 94.322 350.737 93.785 350.974 93.238 C 351.211 92.691 351.441 92.155 351.666 91.629 C 351.89 91.102 352.094 90.625 352.278 90.196 C 352.461 89.768 352.614 89.409 352.737 89.119 C 352.859 88.829 352.937 88.648 352.969 88.574 C 353.002 88.648 353.082 88.829 353.208 89.119 C 353.335 89.409 353.49 89.768 353.673 90.196 C 353.857 90.625 354.061 91.102 354.285 91.629 C 354.51 92.155 354.74 92.692 354.977 93.238 C 355.214 93.785 355.444 94.322 355.669 94.848 C 355.893 95.374 356.097 95.852 356.281 96.28 C 356.464 96.709 356.617 97.068 356.74 97.357 C 356.862 97.647 356.94 97.829 356.972 97.902 L 355.491 97.902 L 355.491 97.902 Z M 351.953 94.291 L 353.985 94.291 L 353.104 92.161 C 353.096 92.153 353.075 92.098 353.043 91.996 C 353.01 91.894 352.986 91.802 352.969 91.72 C 352.953 91.802 352.929 91.894 352.896 91.996 C 352.863 92.098 352.847 92.153 352.847 92.161 L 351.953 94.291 L 351.953 94.291 Z" text-anchor="none" font-size="none" font-weight="none" font-family="none" stroke-dashoffset="0" stroke-miterlimit="10" fill-rule="nonzero" fill="url(#color-13041360795)"/>
    <path d="M 366.035 97.902 C 366.01 97.845 365.967 97.743 365.906 97.596 C 365.845 97.449 365.77 97.27 365.68 97.058 C 365.59 96.845 365.492 96.611 365.386 96.354 C 365.28 96.097 365.17 95.829 365.056 95.552 L 361.983 95.552 L 361.004 97.902 L 359.522 97.902 C 359.555 97.829 359.633 97.647 359.755 97.357 C 359.877 97.068 360.03 96.709 360.214 96.28 C 360.398 95.852 360.602 95.374 360.826 94.848 C 361.051 94.322 361.281 93.785 361.518 93.238 C 361.754 92.691 361.985 92.155 362.209 91.629 C 362.434 91.102 362.638 90.625 362.821 90.196 C 363.005 89.768 363.158 89.409 363.281 89.119 C 363.403 88.829 363.48 88.648 363.513 88.574 C 363.546 88.648 363.625 88.829 363.752 89.119 C 363.878 89.409 364.033 89.768 364.217 90.196 C 364.401 90.625 364.605 91.102 364.829 91.629 C 365.053 92.155 365.284 92.692 365.521 93.238 C 365.757 93.785 365.988 94.322 366.212 94.848 C 366.437 95.374 366.641 95.852 366.824 96.28 C 367.008 96.709 367.161 97.068 367.283 97.357 C 367.406 97.647 367.483 97.829 367.516 97.902 L 366.035 97.902 L 366.035 97.902 Z M 362.497 94.291 L 364.529 94.291 L 363.648 92.161 C 363.64 92.153 363.619 92.098 363.587 91.996 C 363.554 91.894 363.529 91.802 363.513 91.72 C 363.497 91.802 363.472 91.894 363.44 91.996 C 363.407 92.098 363.391 92.153 363.391 92.161 L 362.497 94.291 L 362.497 94.291 Z" text-anchor="none" font-size="none" font-weight="none" font-family="none" stroke-dashoffset="0" stroke-miterlimit="10" fill-rule="nonzero" fill="url(#color-13041360795)"/>
    <path d="M 371.095 97.902 L 371.095 88.978 L 373.616 88.978 C 374.106 88.978 374.553 89.044 374.957 89.174 C 375.361 89.305 375.703 89.492 375.985 89.737 C 376.266 89.982 376.485 90.284 376.64 90.643 C 376.795 91.002 376.872 91.406 376.872 91.855 C 376.872 92.1 376.848 92.345 376.799 92.589 C 376.75 92.834 376.672 93.071 376.566 93.299 C 376.46 93.528 376.322 93.738 376.15 93.93 C 375.979 94.122 375.775 94.287 375.538 94.426 C 375.718 94.711 375.893 94.991 376.064 95.264 C 376.236 95.538 376.409 95.813 376.585 96.09 C 376.76 96.368 376.942 96.654 377.129 96.947 C 377.317 97.241 377.521 97.559 377.742 97.902 L 375.942 97.902 C 375.575 97.331 375.228 96.79 374.902 96.28 C 374.575 95.77 374.261 95.287 373.959 94.83 L 373.837 94.83 L 372.588 94.83 L 372.588 97.902 L 371.095 97.902 L 371.095 97.902 Z M 372.588 93.422 L 373.788 93.422 C 374.098 93.422 374.355 93.369 374.559 93.263 C 374.763 93.157 374.926 93.028 375.048 92.877 C 375.171 92.726 375.257 92.563 375.306 92.388 C 375.354 92.212 375.379 92.051 375.379 91.904 C 375.379 91.765 375.357 91.608 375.312 91.433 C 375.267 91.257 375.185 91.092 375.067 90.937 C 374.948 90.782 374.787 90.651 374.583 90.545 C 374.379 90.439 374.118 90.386 373.8 90.386 L 372.588 90.386 L 372.588 93.422 L 372.588 93.422 Z" text-anchor="none" font-size="none" font-weight="none" font-family="none" stroke-dashoffset="0" stroke-miterlimit="10" fill-rule="nonzero" fill="url(#color-13041360795)"/>
    <path d="M 392.035 89.48 L 391.497 90.704 C 391.154 90.582 390.815 90.484 390.481 90.411 C 390.146 90.337 389.836 90.3 389.55 90.3 C 389.052 90.3 388.659 90.398 388.369 90.594 C 388.079 90.79 387.934 91.039 387.934 91.341 C 387.934 91.602 388.043 91.814 388.259 91.977 C 388.475 92.141 388.746 92.288 389.073 92.418 C 389.399 92.549 389.752 92.681 390.132 92.816 C 390.511 92.951 390.864 93.124 391.191 93.336 C 391.517 93.548 391.788 93.818 392.005 94.144 C 392.221 94.471 392.329 94.887 392.329 95.393 C 392.329 95.784 392.258 96.139 392.115 96.458 C 391.972 96.776 391.758 97.049 391.472 97.278 C 391.186 97.506 390.825 97.684 390.389 97.81 C 389.952 97.937 389.44 98 388.852 98 C 388.493 98 388.167 97.976 387.873 97.927 C 387.579 97.878 387.316 97.816 387.084 97.743 C 386.851 97.67 386.645 97.59 386.465 97.504 C 386.286 97.419 386.131 97.335 386 97.253 L 386.649 95.944 C 386.992 96.131 387.359 96.276 387.751 96.378 C 388.142 96.48 388.489 96.531 388.791 96.531 C 388.938 96.531 389.128 96.515 389.361 96.482 C 389.593 96.45 389.82 96.388 390.04 96.299 C 390.26 96.209 390.45 96.086 390.609 95.931 C 390.768 95.776 390.848 95.576 390.848 95.332 C 390.848 95.046 390.74 94.811 390.523 94.628 C 390.307 94.444 390.036 94.281 389.709 94.138 C 389.383 93.995 389.03 93.854 388.651 93.716 C 388.271 93.577 387.918 93.412 387.592 93.22 C 387.265 93.028 386.994 92.791 386.778 92.51 C 386.561 92.228 386.453 91.871 386.453 91.439 C 386.453 91.129 386.514 90.825 386.637 90.527 C 386.759 90.229 386.945 89.962 387.194 89.725 C 387.443 89.488 387.753 89.297 388.124 89.15 C 388.495 89.003 388.934 88.929 389.44 88.929 C 389.758 88.929 390.066 88.956 390.364 89.009 C 390.662 89.062 390.929 89.121 391.166 89.186 C 391.403 89.252 391.599 89.315 391.754 89.376 C 391.909 89.437 392.003 89.472 392.035 89.48 L 392.035 89.48 Z" text-anchor="none" font-size="none" font-weight="none" font-family="none" stroke-dashoffset="0" stroke-miterlimit="10" fill-rule="nonzero" fill="url(#color-13041360795)"/>
    <path d="M 396.311 97.902 L 396.311 88.978 L 398.833 88.978 C 399.323 88.978 399.77 89.044 400.174 89.174 C 400.578 89.305 400.92 89.492 401.202 89.737 C 401.483 89.982 401.702 90.284 401.857 90.643 C 402.012 91.002 402.089 91.406 402.089 91.855 C 402.089 92.1 402.065 92.345 402.016 92.589 C 401.967 92.834 401.889 93.071 401.783 93.299 C 401.677 93.528 401.539 93.738 401.367 93.93 C 401.196 94.122 400.992 94.287 400.755 94.426 C 400.935 94.711 401.11 94.991 401.281 95.264 C 401.453 95.538 401.626 95.813 401.802 96.09 C 401.977 96.368 402.159 96.654 402.346 96.947 C 402.534 97.241 402.738 97.559 402.958 97.902 L 401.159 97.902 C 400.792 97.331 400.445 96.79 400.119 96.28 C 399.792 95.77 399.478 95.287 399.176 94.83 L 399.054 94.83 L 397.805 94.83 L 397.805 97.902 L 396.311 97.902 L 396.311 97.902 Z M 397.805 93.422 L 399.005 93.422 C 399.315 93.422 399.572 93.369 399.776 93.263 C 399.98 93.157 400.143 93.028 400.265 92.877 C 400.388 92.726 400.474 92.563 400.522 92.388 C 400.571 92.212 400.596 92.051 400.596 91.904 C 400.596 91.765 400.573 91.608 400.529 91.433 C 400.484 91.257 400.402 91.092 400.284 90.937 C 400.165 90.782 400.004 90.651 399.8 90.545 C 399.596 90.439 399.335 90.386 399.017 90.386 L 397.805 90.386 L 397.805 93.422 L 397.805 93.422 Z" text-anchor="none" font-size="none" font-weight="none" font-family="none" stroke-dashoffset="0" stroke-miterlimit="10" fill-rule="nonzero" fill="url(#color-13041360795)"/>
    <path d="M 406.647 88.978 L 408.153 88.978 L 408.153 97.902 L 406.647 97.902 L 406.647 88.978 Z" text-anchor="none" font-size="none" font-weight="none" font-family="none" stroke-dashoffset="0" stroke-miterlimit="10" fill-rule="nonzero" fill="url(#color-13041360795)"/>
    <path d="M 418.101 97.902 L 418.101 88.978 L 419.594 88.978 L 419.594 96.482 L 423.928 96.482 L 423.928 97.902 L 418.101 97.902 L 418.101 97.902 Z" text-anchor="none" font-size="none" font-weight="none" font-family="none" stroke-dashoffset="0" stroke-miterlimit="10" fill-rule="nonzero" fill="url(#color-13041360795)"/>
    <path d="M 433.174 97.902 C 433.149 97.845 433.107 97.743 433.045 97.596 C 432.984 97.449 432.909 97.27 432.819 97.058 C 432.729 96.845 432.631 96.611 432.525 96.354 C 432.419 96.097 432.309 95.829 432.195 95.552 L 429.122 95.552 L 428.143 97.902 L 426.662 97.902 C 426.694 97.829 426.772 97.647 426.894 97.357 C 427.017 97.068 427.17 96.709 427.353 96.28 C 427.537 95.852 427.741 95.374 427.965 94.848 C 428.19 94.322 428.42 93.785 428.657 93.238 C 428.894 92.691 429.124 92.155 429.349 91.629 C 429.573 91.102 429.777 90.625 429.961 90.196 C 430.144 89.768 430.297 89.409 430.42 89.119 C 430.542 88.829 430.62 88.648 430.652 88.574 C 430.685 88.648 430.764 88.829 430.891 89.119 C 431.017 89.409 431.173 89.768 431.356 90.196 C 431.54 90.625 431.744 91.102 431.968 91.629 C 432.193 92.155 432.423 92.692 432.66 93.238 C 432.896 93.785 433.127 94.322 433.351 94.848 C 433.576 95.374 433.78 95.852 433.964 96.28 C 434.147 96.709 434.3 97.068 434.423 97.357 C 434.545 97.647 434.623 97.829 434.655 97.902 L 433.174 97.902 L 433.174 97.902 Z M 429.636 94.291 L 431.668 94.291 L 430.787 92.161 C 430.779 92.153 430.758 92.098 430.726 91.996 C 430.693 91.894 430.669 91.802 430.652 91.72 C 430.636 91.802 430.611 91.894 430.579 91.996 C 430.546 92.098 430.53 92.153 430.53 92.161 L 429.636 94.291 Z" text-anchor="none" font-size="none" font-weight="none" font-family="none" stroke-dashoffset="0" stroke-miterlimit="10" fill-rule="nonzero" fill="url(#color-13041360795)"/>
    <path d="M 446.117 88.978 L 446.117 98.318 C 446.06 98.245 445.933 98.11 445.738 97.914 C 445.542 97.719 445.301 97.484 445.015 97.211 C 444.73 96.937 444.413 96.635 444.067 96.305 C 443.72 95.974 443.367 95.64 443.008 95.301 C 442.649 94.962 442.298 94.63 441.955 94.303 C 441.612 93.977 441.3 93.677 441.019 93.404 C 440.737 93.13 440.5 92.898 440.309 92.706 C 440.117 92.514 439.992 92.381 439.935 92.308 C 439.927 92.292 439.894 92.249 439.837 92.179 C 439.78 92.11 439.731 92.047 439.69 91.99 L 439.727 92.381 L 439.727 97.902 L 438.234 97.902 L 438.234 88.574 C 438.291 88.648 438.417 88.78 438.613 88.972 C 438.809 89.164 439.05 89.395 439.335 89.664 C 439.621 89.933 439.937 90.227 440.284 90.545 C 440.631 90.863 440.984 91.188 441.343 91.518 C 441.702 91.849 442.053 92.175 442.396 92.498 C 442.738 92.82 443.053 93.114 443.338 93.379 C 443.624 93.644 443.863 93.871 444.054 94.058 C 444.246 94.246 444.371 94.377 444.428 94.45 L 444.66 94.793 L 444.624 94.377 L 444.624 88.978 L 446.117 88.978 L 446.117 88.978 Z" text-anchor="none" font-size="none" font-weight="none" font-family="none" stroke-dashoffset="0" stroke-miterlimit="10" fill-rule="nonzero" fill="url(#color-13041360795)"/>
    <path d="M 455.951 97.902 C 455.665 97.551 455.4 97.213 455.155 96.886 C 454.91 96.56 454.665 96.235 454.421 95.913 C 454.176 95.591 453.929 95.264 453.68 94.934 C 453.431 94.603 453.168 94.258 452.891 93.899 C 452.801 93.997 452.715 94.085 452.633 94.162 C 452.552 94.24 452.466 94.32 452.376 94.401 L 452.376 97.902 L 450.724 97.902 L 450.724 88.978 L 452.376 88.978 L 452.376 92.186 C 452.376 92.251 452.372 92.32 452.364 92.394 C 452.356 92.467 452.348 92.541 452.34 92.614 C 452.38 92.557 452.423 92.506 452.468 92.461 C 452.513 92.416 452.556 92.361 452.597 92.296 C 453.152 91.765 453.684 91.214 454.194 90.643 C 454.704 90.072 455.237 89.517 455.792 88.978 L 457.689 88.978 C 457.077 89.623 456.469 90.276 455.865 90.937 C 455.261 91.598 454.657 92.247 454.053 92.883 C 454.396 93.324 454.721 93.752 455.027 94.169 C 455.333 94.585 455.637 94.995 455.939 95.399 C 456.241 95.803 456.545 96.211 456.851 96.623 C 457.157 97.035 457.477 97.461 457.811 97.902 L 455.951 97.902 L 455.951 97.902 Z" text-anchor="none" font-size="none" font-weight="none" font-family="none" stroke-dashoffset="0" stroke-miterlimit="10" fill-rule="nonzero" fill="url(#color-13041360795)"/>
    <path d="M 466.776 97.902 C 466.752 97.845 466.709 97.743 466.648 97.596 C 466.586 97.449 466.511 97.27 466.421 97.058 C 466.331 96.845 466.233 96.611 466.127 96.354 C 466.021 96.097 465.911 95.829 465.797 95.552 L 462.724 95.552 L 461.745 97.902 L 460.264 97.902 C 460.296 97.829 460.374 97.647 460.496 97.357 C 460.619 97.068 460.772 96.709 460.955 96.28 C 461.139 95.852 461.343 95.374 461.568 94.848 C 461.792 94.322 462.022 93.785 462.259 93.238 C 462.496 92.691 462.726 92.155 462.951 91.629 C 463.175 91.102 463.379 90.625 463.563 90.196 C 463.746 89.768 463.899 89.409 464.022 89.119 C 464.144 88.829 464.222 88.648 464.254 88.574 C 464.287 88.648 464.367 88.829 464.493 89.119 C 464.62 89.409 464.775 89.768 464.958 90.196 C 465.142 90.625 465.346 91.102 465.57 91.629 C 465.795 92.155 466.025 92.692 466.262 93.238 C 466.499 93.785 466.729 94.322 466.954 94.848 C 467.178 95.374 467.382 95.852 467.566 96.28 C 467.749 96.709 467.902 97.068 468.025 97.357 C 468.147 97.647 468.225 97.829 468.257 97.902 L 466.776 97.902 L 466.776 97.902 Z M 463.238 94.291 L 465.27 94.291 L 464.389 92.161 C 464.381 92.153 464.361 92.098 464.328 91.996 C 464.295 91.894 464.271 91.802 464.254 91.72 C 464.238 91.802 464.214 91.894 464.181 91.996 C 464.148 92.098 464.132 92.153 464.132 92.161 L 463.238 94.291 Z" text-anchor="none" font-size="none" font-weight="none" font-family="none" stroke-dashoffset="0" stroke-miterlimit="10" fill-rule="nonzero" fill="url(#color-13041360795)"/>
    <path d="M 476.822 88.587 C 476.863 88.644 476.953 88.772 477.091 88.972 C 477.23 89.172 477.404 89.417 477.612 89.707 C 477.82 89.996 478.052 90.317 478.309 90.668 C 478.567 91.019 478.828 91.376 479.093 91.739 C 479.358 92.102 479.617 92.457 479.87 92.804 C 480.123 93.151 480.352 93.467 480.556 93.752 C 480.76 94.038 480.933 94.277 481.076 94.469 C 481.219 94.66 481.307 94.781 481.339 94.83 C 481.355 94.805 481.429 94.701 481.56 94.517 C 481.69 94.334 481.855 94.103 482.055 93.826 C 482.255 93.548 482.482 93.232 482.735 92.877 C 482.988 92.522 483.249 92.161 483.518 91.794 C 483.787 91.427 484.051 91.063 484.308 90.704 C 484.565 90.345 484.801 90.019 485.018 89.725 C 485.234 89.431 485.416 89.182 485.562 88.978 C 485.709 88.774 485.803 88.644 485.844 88.587 L 485.844 97.902 L 484.24 97.902 L 484.24 93.348 C 484.24 93.283 484.249 93.214 484.265 93.14 C 484.281 93.067 484.289 93.022 484.289 93.006 L 481.339 97.253 C 481.298 97.204 481.198 97.07 481.039 96.849 C 480.88 96.629 480.69 96.368 480.47 96.066 C 480.25 95.764 480.017 95.44 479.772 95.093 C 479.527 94.746 479.297 94.424 479.081 94.126 C 478.864 93.828 478.681 93.575 478.53 93.367 C 478.379 93.159 478.295 93.038 478.279 93.006 C 478.279 93.022 478.287 93.067 478.303 93.14 C 478.32 93.214 478.328 93.283 478.328 93.348 L 478.328 97.902 L 476.822 97.902 L 476.822 88.587 L 476.822 88.587 Z" text-anchor="none" font-size="none" font-weight="none" font-family="none" stroke-dashoffset="0" stroke-miterlimit="10" fill-rule="nonzero" fill="url(#color-13041360795)"/>
    <path d="M 495.935 97.902 C 495.91 97.845 495.867 97.743 495.806 97.596 C 495.745 97.449 495.67 97.27 495.58 97.058 C 495.49 96.845 495.392 96.611 495.286 96.354 C 495.18 96.097 495.07 95.829 494.956 95.552 L 491.883 95.552 L 490.904 97.902 L 489.422 97.902 C 489.455 97.829 489.533 97.647 489.655 97.357 C 489.777 97.068 489.93 96.709 490.114 96.28 C 490.298 95.852 490.502 95.374 490.726 94.848 C 490.951 94.322 491.181 93.785 491.418 93.238 C 491.654 92.691 491.885 92.155 492.109 91.629 C 492.334 91.102 492.538 90.625 492.721 90.196 C 492.905 89.768 493.058 89.409 493.181 89.119 C 493.303 88.829 493.38 88.648 493.413 88.574 C 493.446 88.648 493.525 88.829 493.652 89.119 C 493.778 89.409 493.933 89.768 494.117 90.196 C 494.301 90.625 494.505 91.102 494.729 91.629 C 494.953 92.155 495.184 92.692 495.421 93.238 C 495.657 93.785 495.888 94.322 496.112 94.848 C 496.337 95.374 496.541 95.852 496.724 96.28 C 496.908 96.709 497.061 97.068 497.183 97.357 C 497.306 97.647 497.383 97.829 497.416 97.902 L 495.935 97.902 L 495.935 97.902 Z M 492.397 94.291 L 494.429 94.291 L 493.548 92.161 C 493.54 92.153 493.519 92.098 493.487 91.996 C 493.454 91.894 493.429 91.802 493.413 91.72 C 493.397 91.802 493.372 91.894 493.34 91.996 C 493.307 92.098 493.291 92.153 493.291 92.161 L 492.397 94.291 Z" text-anchor="none" font-size="none" font-weight="none" font-family="none" stroke-dashoffset="0" stroke-miterlimit="10" fill-rule="nonzero" fill="url(#color-13041360795)"/>
    <path d="M 506.222 97.902 C 505.936 97.551 505.671 97.213 505.426 96.886 C 505.181 96.56 504.936 96.235 504.691 95.913 C 504.447 95.591 504.2 95.264 503.951 94.934 C 503.702 94.603 503.439 94.258 503.161 93.899 C 503.071 93.997 502.986 94.085 502.904 94.162 C 502.823 94.24 502.737 94.32 502.647 94.401 L 502.647 97.902 L 500.995 97.902 L 500.995 88.978 L 502.647 88.978 L 502.647 92.186 C 502.647 92.251 502.643 92.32 502.635 92.394 C 502.627 92.467 502.619 92.541 502.61 92.614 C 502.651 92.557 502.694 92.506 502.739 92.461 C 502.784 92.416 502.827 92.361 502.867 92.296 C 503.422 91.765 503.955 91.214 504.465 90.643 C 504.975 90.072 505.507 89.517 506.062 88.978 L 507.96 88.978 C 507.348 89.623 506.74 90.276 506.136 90.937 C 505.532 91.598 504.928 92.247 504.324 92.883 C 504.667 93.324 504.991 93.752 505.297 94.169 C 505.603 94.585 505.907 94.995 506.209 95.399 C 506.511 95.803 506.815 96.211 507.121 96.623 C 507.427 97.035 507.748 97.461 508.082 97.902 L 506.222 97.902 L 506.222 97.902 Z" text-anchor="none" font-size="none" font-weight="none" font-family="none" stroke-dashoffset="0" stroke-miterlimit="10" fill-rule="nonzero" fill="url(#color-13041360795)"/>
    <path d="M 516.79 97.902 C 516.504 97.551 516.239 97.213 515.994 96.886 C 515.749 96.56 515.504 96.235 515.26 95.913 C 515.015 95.591 514.768 95.264 514.519 94.934 C 514.27 94.603 514.007 94.258 513.73 93.899 C 513.64 93.997 513.554 94.085 513.472 94.162 C 513.391 94.24 513.305 94.32 513.215 94.401 L 513.215 97.902 L 511.563 97.902 L 511.563 88.978 L 513.215 88.978 L 513.215 92.186 C 513.215 92.251 513.211 92.32 513.203 92.394 C 513.195 92.467 513.187 92.541 513.179 92.614 C 513.219 92.557 513.262 92.506 513.307 92.461 C 513.352 92.416 513.395 92.361 513.436 92.296 C 513.991 91.765 514.523 91.214 515.033 90.643 C 515.543 90.072 516.076 89.517 516.631 88.978 L 518.528 88.978 C 517.916 89.623 517.308 90.276 516.704 90.937 C 516.1 91.598 515.496 92.247 514.892 92.883 C 515.235 93.324 515.56 93.752 515.866 94.169 C 516.172 94.585 516.476 94.995 516.778 95.399 C 517.08 95.803 517.383 96.211 517.69 96.623 C 517.996 97.035 518.316 97.461 518.65 97.902 L 516.79 97.902 L 516.79 97.902 Z" text-anchor="none" font-size="none" font-weight="none" font-family="none" stroke-dashoffset="0" stroke-miterlimit="10" fill-rule="nonzero" fill="url(#color-13041360795)"/>
    <path d="M 522.131 97.902 L 522.131 88.978 L 528.056 88.978 L 528.056 90.337 L 523.625 90.337 L 523.625 92.736 L 527.566 92.736 L 527.566 94.132 L 523.625 94.132 L 523.625 96.507 L 528.227 96.507 L 528.227 97.902 L 522.131 97.902 Z" text-anchor="none" font-size="none" font-weight="none" font-family="none" stroke-dashoffset="0" stroke-miterlimit="10" fill-rule="nonzero" fill="url(#color-13041360795)"/>
    <path d="M 532.259 97.902 L 532.259 88.978 L 533.752 88.978 L 533.752 96.482 L 538.085 96.482 L 538.085 97.902 L 532.259 97.902 L 532.259 97.902 Z" text-anchor="none" font-size="none" font-weight="none" font-family="none" stroke-dashoffset="0" stroke-miterlimit="10" fill-rule="nonzero" fill="url(#color-13041360795)"/>
    <path d="M 541.848 88.978 L 543.353 88.978 L 543.353 97.902 L 541.848 97.902 L 541.848 88.978 Z" text-anchor="none" font-size="none" font-weight="none" font-family="none" stroke-dashoffset="0" stroke-miterlimit="10" fill-rule="nonzero" fill="url(#color-13041360795)"/>
    <path d="M 546.687 99.751 L 546.687 98.331 C 546.964 98.314 547.222 98.261 547.458 98.171 C 547.695 98.082 547.899 97.949 548.07 97.774 C 548.242 97.598 548.374 97.374 548.468 97.1 C 548.562 96.827 548.609 96.503 548.609 96.127 L 548.609 88.978 L 550.127 88.978 L 550.127 96.164 C 550.127 96.727 550.039 97.227 549.864 97.663 C 549.688 98.1 549.447 98.471 549.141 98.777 C 548.835 99.083 548.472 99.318 548.052 99.481 C 547.632 99.645 547.177 99.734 546.687 99.751 L 546.687 99.751 L 546.687 99.751 Z" text-anchor="none" font-size="none" font-weight="none" font-family="none" stroke-dashoffset="0" stroke-miterlimit="10" fill-rule="nonzero" fill="url(#color-13041360795)"/>
    <path d="M 559.924 97.902 C 559.638 97.551 559.373 97.213 559.128 96.886 C 558.883 96.56 558.639 96.235 558.394 95.913 C 558.149 95.591 557.902 95.264 557.653 94.934 C 557.404 94.603 557.141 94.258 556.864 93.899 C 556.774 93.997 556.688 94.085 556.607 94.162 C 556.525 94.24 556.439 94.32 556.349 94.401 L 556.349 97.902 L 554.697 97.902 L 554.697 88.978 L 556.349 88.978 L 556.349 92.186 C 556.349 92.251 556.345 92.32 556.337 92.394 C 556.329 92.467 556.321 92.541 556.313 92.614 C 556.354 92.557 556.396 92.506 556.441 92.461 C 556.486 92.416 556.529 92.361 556.57 92.296 C 557.125 91.765 557.657 91.214 558.167 90.643 C 558.677 90.072 559.21 89.517 559.765 88.978 L 561.662 88.978 C 561.05 89.623 560.442 90.276 559.838 90.937 C 559.234 91.598 558.63 92.247 558.026 92.883 C 558.369 93.324 558.694 93.752 559 94.169 C 559.306 94.585 559.61 94.995 559.912 95.399 C 560.214 95.803 560.518 96.211 560.824 96.623 C 561.13 97.035 561.45 97.461 561.785 97.902 L 559.924 97.902 L 559.924 97.902 Z" text-anchor="none" font-size="none" font-weight="none" font-family="none" stroke-dashoffset="0" stroke-miterlimit="10" fill-rule="nonzero" fill="url(#color-13041360795)"/>
    <path d="M 577.192 93.569 L 577.192 97.364 C 576.849 97.568 576.435 97.725 575.95 97.835 C 575.464 97.945 574.968 98 574.462 98 C 573.761 98 573.126 97.89 572.559 97.67 C 571.992 97.449 571.508 97.147 571.108 96.764 C 570.708 96.38 570.402 95.923 570.19 95.393 C 569.978 94.862 569.872 94.283 569.872 93.654 C 569.872 92.944 569.998 92.298 570.251 91.714 C 570.504 91.131 570.845 90.629 571.274 90.209 C 571.702 89.788 572.2 89.462 572.767 89.229 C 573.334 88.997 573.932 88.88 574.56 88.88 C 574.773 88.88 574.995 88.895 575.227 88.923 C 575.46 88.952 575.691 88.995 575.919 89.052 C 576.148 89.109 576.368 89.176 576.58 89.254 C 576.792 89.331 576.984 89.423 577.155 89.529 L 576.421 90.753 C 576.307 90.68 576.17 90.617 576.011 90.564 C 575.852 90.511 575.687 90.464 575.515 90.423 C 575.344 90.382 575.174 90.351 575.007 90.331 C 574.84 90.311 574.683 90.3 574.536 90.3 C 574.12 90.3 573.722 90.384 573.342 90.551 C 572.963 90.719 572.626 90.945 572.332 91.231 C 572.039 91.516 571.804 91.857 571.629 92.253 C 571.453 92.649 571.365 93.071 571.365 93.52 C 571.365 93.928 571.443 94.316 571.598 94.683 C 571.753 95.05 571.969 95.374 572.247 95.656 C 572.524 95.937 572.855 96.162 573.238 96.329 C 573.622 96.496 574.042 96.58 574.499 96.58 C 574.662 96.58 574.866 96.566 575.111 96.537 C 575.356 96.509 575.589 96.458 575.809 96.384 L 575.809 94.866 L 574.144 94.866 L 574.144 93.569 L 577.192 93.569 L 577.192 93.569 Z" text-anchor="none" font-size="none" font-weight="none" font-family="none" stroke-dashoffset="0" stroke-miterlimit="10" fill-rule="nonzero" fill="url(#color-13041360795)"/>
    <path d="M 581.42 97.902 L 581.42 88.978 L 587.344 88.978 L 587.344 90.337 L 582.913 90.337 L 582.913 92.736 L 586.855 92.736 L 586.855 94.132 L 582.913 94.132 L 582.913 96.507 L 587.516 96.507 L 587.516 97.902 L 581.42 97.902 Z" text-anchor="none" font-size="none" font-weight="none" font-family="none" stroke-dashoffset="0" stroke-miterlimit="10" fill-rule="nonzero" fill="url(#color-13041360795)"/>
    <path d="M 591.547 88.587 C 591.588 88.644 591.678 88.772 591.816 88.972 C 591.955 89.172 592.129 89.417 592.337 89.707 C 592.545 89.996 592.777 90.317 593.034 90.668 C 593.291 91.019 593.553 91.376 593.818 91.739 C 594.083 92.102 594.342 92.457 594.595 92.804 C 594.848 93.151 595.077 93.467 595.281 93.752 C 595.485 94.038 595.658 94.277 595.801 94.469 C 595.944 94.66 596.031 94.781 596.064 94.83 C 596.08 94.805 596.154 94.701 596.284 94.517 C 596.415 94.334 596.58 94.103 596.78 93.826 C 596.98 93.548 597.207 93.232 597.46 92.877 C 597.713 92.522 597.974 92.161 598.243 91.794 C 598.512 91.427 598.776 91.063 599.033 90.704 C 599.29 90.345 599.526 90.019 599.743 89.725 C 599.959 89.431 600.14 89.182 600.287 88.978 C 600.434 88.774 600.528 88.644 600.569 88.587 L 600.569 97.902 L 598.965 97.902 L 598.965 93.348 C 598.965 93.283 598.973 93.214 598.99 93.14 C 599.006 93.067 599.014 93.022 599.014 93.006 L 596.064 97.253 C 596.023 97.204 595.923 97.07 595.764 96.849 C 595.605 96.629 595.415 96.368 595.195 96.066 C 594.975 95.764 594.742 95.44 594.497 95.093 C 594.252 94.746 594.022 94.424 593.806 94.126 C 593.589 93.828 593.406 93.575 593.255 93.367 C 593.104 93.159 593.02 93.038 593.004 93.006 C 593.004 93.022 593.012 93.067 593.028 93.14 C 593.045 93.214 593.053 93.283 593.053 93.348 L 593.053 97.902 L 591.547 97.902 L 591.547 88.587 L 591.547 88.587 Z" text-anchor="none" font-size="none" font-weight="none" font-family="none" stroke-dashoffset="0" stroke-miterlimit="10" fill-rule="nonzero" fill="url(#color-13041360795)"/>
    <path d="M 610.66 97.902 C 610.635 97.845 610.592 97.743 610.531 97.596 C 610.47 97.449 610.395 97.27 610.305 97.058 C 610.215 96.845 610.117 96.611 610.011 96.354 C 609.905 96.097 609.795 95.829 609.68 95.552 L 606.608 95.552 L 605.629 97.902 L 604.147 97.902 C 604.18 97.829 604.258 97.647 604.38 97.357 C 604.502 97.068 604.655 96.709 604.839 96.28 C 605.023 95.852 605.227 95.374 605.451 94.848 C 605.676 94.322 605.906 93.785 606.143 93.238 C 606.379 92.691 606.61 92.155 606.834 91.629 C 607.059 91.102 607.263 90.625 607.446 90.196 C 607.63 89.768 607.783 89.409 607.905 89.119 C 608.028 88.829 608.105 88.648 608.138 88.574 C 608.171 88.648 608.25 88.829 608.377 89.119 C 608.503 89.409 608.658 89.768 608.842 90.196 C 609.026 90.625 609.23 91.102 609.454 91.629 C 609.678 92.155 609.909 92.692 610.146 93.238 C 610.382 93.785 610.613 94.322 610.837 94.848 C 611.062 95.374 611.266 95.852 611.449 96.28 C 611.633 96.709 611.786 97.068 611.908 97.357 C 612.031 97.647 612.108 97.829 612.141 97.902 L 610.66 97.902 L 610.66 97.902 Z M 607.122 94.291 L 609.154 94.291 L 608.273 92.161 C 608.265 92.153 608.244 92.098 608.212 91.996 C 608.179 91.894 608.154 91.802 608.138 91.72 C 608.122 91.802 608.097 91.894 608.065 91.996 C 608.032 92.098 608.016 92.153 608.016 92.161 L 607.122 94.291 Z" text-anchor="none" font-size="none" font-weight="none" font-family="none" stroke-dashoffset="0" stroke-miterlimit="10" fill-rule="nonzero" fill="url(#color-13041360795)"/>
    <path d="M 621.204 97.902 C 621.179 97.845 621.136 97.743 621.075 97.596 C 621.014 97.449 620.938 97.27 620.849 97.058 C 620.759 96.845 620.661 96.611 620.555 96.354 C 620.449 96.097 620.339 95.829 620.224 95.552 L 617.152 95.552 L 616.172 97.902 L 614.691 97.902 C 614.724 97.829 614.801 97.647 614.924 97.357 C 615.046 97.068 615.199 96.709 615.383 96.28 C 615.566 95.852 615.77 95.374 615.995 94.848 C 616.219 94.322 616.45 93.785 616.687 93.238 C 616.923 92.691 617.154 92.155 617.378 91.629 C 617.603 91.102 617.807 90.625 617.99 90.196 C 618.174 89.768 618.327 89.409 618.449 89.119 C 618.572 88.829 618.649 88.648 618.682 88.574 C 618.715 88.648 618.794 88.829 618.921 89.119 C 619.047 89.409 619.202 89.768 619.386 90.196 C 619.569 90.625 619.773 91.102 619.998 91.629 C 620.222 92.155 620.453 92.692 620.689 93.238 C 620.926 93.785 621.157 94.322 621.381 94.848 C 621.605 95.374 621.809 95.852 621.993 96.28 C 622.177 96.709 622.33 97.068 622.452 97.357 C 622.575 97.647 622.652 97.829 622.685 97.902 L 621.204 97.902 L 621.204 97.902 Z M 617.666 94.291 L 619.698 94.291 L 618.817 92.161 C 618.808 92.153 618.788 92.098 618.755 91.996 C 618.723 91.894 618.698 91.802 618.682 91.72 C 618.666 91.802 618.641 91.894 618.608 91.996 C 618.576 92.098 618.559 92.153 618.559 92.161 L 617.666 94.291 Z" text-anchor="none" font-size="none" font-weight="none" font-family="none" stroke-dashoffset="0" stroke-miterlimit="10" fill-rule="nonzero" fill="url(#color-13041360795)"/>
    <path d="M 631.49 97.902 C 631.205 97.551 630.939 97.213 630.695 96.886 C 630.45 96.56 630.205 96.235 629.96 95.913 C 629.715 95.591 629.468 95.264 629.22 94.934 C 628.971 94.603 628.707 94.258 628.43 93.899 C 628.34 93.997 628.255 94.085 628.173 94.162 C 628.091 94.24 628.006 94.32 627.916 94.401 L 627.916 97.902 L 626.263 97.902 L 626.263 88.978 L 627.916 88.978 L 627.916 92.186 C 627.916 92.251 627.912 92.32 627.904 92.394 C 627.895 92.467 627.887 92.541 627.879 92.614 C 627.92 92.557 627.963 92.506 628.008 92.461 C 628.053 92.416 628.095 92.361 628.136 92.296 C 628.691 91.765 629.224 91.214 629.734 90.643 C 630.244 90.072 630.776 89.517 631.331 88.978 L 633.229 88.978 C 632.616 89.623 632.008 90.276 631.405 90.937 C 630.801 91.598 630.197 92.247 629.593 92.883 C 629.936 93.324 630.26 93.752 630.566 94.169 C 630.872 94.585 631.176 94.995 631.478 95.399 C 631.78 95.803 632.084 96.211 632.39 96.623 C 632.696 97.035 633.016 97.461 633.351 97.902 L 631.49 97.902 L 631.49 97.902 Z" text-anchor="none" font-size="none" font-weight="none" font-family="none" stroke-dashoffset="0" stroke-miterlimit="10" fill-rule="nonzero" fill="url(#color-13041360795)"/>
    <path d="M 642.181 88.978 L 642.181 90.411 L 639.978 90.411 L 639.978 97.902 L 638.472 97.902 L 638.472 90.411 L 636.317 90.411 L 636.317 88.978 L 642.181 88.978 L 642.181 88.978 Z" text-anchor="none" font-size="none" font-weight="none" font-family="none" stroke-dashoffset="0" stroke-miterlimit="10" fill-rule="nonzero" fill="url(#color-13041360795)"/>
    <path d="M 272.597 68.724 C 275.201 74.668 279.786 77.272 285.277 77.272 C 292.466 77.272 298.07 73.366 298.07 66.46 C 298.07 61.705 295.24 58.252 285.221 54.403 C 278.032 51.629 275.711 49.704 275.711 45.459 C 275.711 40.534 280.013 38.157 285.051 38.157 C 289.919 38.157 293.485 40.308 295.976 44.157 L 297.844 42.685 C 295.014 38.327 290.598 36.006 285.221 36.006 C 278.598 36.006 273.22 39.176 273.22 45.685 C 273.22 50.327 275.937 53.61 283.749 56.441 C 292.749 59.724 295.58 62.611 295.58 66.234 C 295.58 71.668 291.787 75.121 285.39 75.121 C 280.296 75.121 276.503 72.46 274.692 67.479 L 272.597 68.724 L 272.597 68.724 Z" text-anchor="none" font-size="none" font-weight="none" font-family="none" stroke-dashoffset="0" stroke-miterlimit="10" fill-rule="nonzero" fill="url(#color-13041360795)"/>
    <path d="M 332.487 76.536 L 321.336 58.705 C 328.015 58.705 332.317 53.724 332.317 47.723 C 332.317 41.723 328.185 36.742 321.788 36.742 L 305.146 36.742 L 305.146 76.536 L 307.524 76.536 L 307.524 58.705 L 318.505 58.705 L 329.657 76.536 L 332.487 76.536 Z M 307.524 56.554 L 307.524 38.893 L 321.619 38.893 C 326.657 38.893 329.827 42.912 329.827 47.723 C 329.827 52.535 326.657 56.554 321.619 56.554 L 307.524 56.554 Z" text-anchor="none" font-size="none" font-weight="none" font-family="none" stroke-dashoffset="0" stroke-miterlimit="10" fill-rule="nonzero" fill="url(#color-13041360795)"/>
    <path d="M 341.657 76.536 L 341.657 36.742 L 339.28 36.742 L 339.28 76.536 L 341.657 76.536 Z" text-anchor="none" font-size="none" font-weight="none" font-family="none" stroke-dashoffset="0" stroke-miterlimit="10" fill-rule="nonzero" fill="url(#color-13041360795)"/>
    <path d="M 386.433 76.536 L 386.433 74.385 L 366.111 74.385 L 366.111 36.742 L 363.734 36.742 L 363.734 76.536 L 386.433 76.536 Z" text-anchor="none" font-size="none" font-weight="none" font-family="none" stroke-dashoffset="0" stroke-miterlimit="10" fill-rule="nonzero" fill="url(#color-13041360795)"/>
    <path d="M 419.774 76.536 L 405.566 36.742 L 402.905 36.742 L 388.697 76.536 L 391.188 76.536 L 395.264 65.045 L 413.208 65.045 L 417.284 76.536 L 419.774 76.536 L 419.774 76.536 Z M 412.529 63.007 L 395.943 63.007 L 404.207 39.629 L 412.529 63.007 Z" text-anchor="none" font-size="none" font-weight="none" font-family="none" stroke-dashoffset="0" stroke-miterlimit="10" fill-rule="nonzero" fill="url(#color-13041360795)"/>
    <path d="M 453.455 76.536 L 453.455 36.742 L 451.078 36.742 L 451.078 72.8 L 427.756 36.742 L 425.152 36.742 L 425.152 76.536 L 427.529 76.536 L 427.529 40.534 L 450.795 76.536 L 453.455 76.536 L 453.455 76.536 Z" text-anchor="none" font-size="none" font-weight="none" font-family="none" stroke-dashoffset="0" stroke-miterlimit="10" fill-rule="nonzero" fill="url(#color-13041360795)"/>
    <path d="M 489.853 76.536 L 475.362 52.422 L 489.174 36.742 L 486.287 36.742 L 464.323 61.875 L 464.323 36.742 L 461.946 36.742 L 461.946 76.536 L 464.323 76.536 L 464.323 65.045 L 473.833 54.233 L 487.192 76.536 L 489.853 76.536 L 489.853 76.536 Z" text-anchor="none" font-size="none" font-weight="none" font-family="none" stroke-dashoffset="0" stroke-miterlimit="10" fill-rule="nonzero" fill="url(#color-13041360795)"/>
    <path d="M 523.477 76.536 L 509.269 36.742 L 506.608 36.742 L 492.4 76.536 L 494.891 76.536 L 498.967 65.045 L 516.911 65.045 L 520.987 76.536 L 523.477 76.536 L 523.477 76.536 Z M 516.232 63.007 L 499.646 63.007 L 507.91 39.629 L 516.232 63.007 Z" text-anchor="none" font-size="none" font-weight="none" font-family="none" stroke-dashoffset="0" stroke-miterlimit="10" fill-rule="nonzero" fill="url(#color-13041360795)"/>
    <path d="M 569.781 76.536 L 558.63 58.705 C 565.309 58.705 569.611 53.724 569.611 47.723 C 569.611 41.723 565.479 36.742 559.083 36.742 L 542.44 36.742 L 542.44 76.536 L 544.818 76.536 L 544.818 58.705 L 555.8 58.705 L 566.951 76.536 L 569.781 76.536 L 569.781 76.536 Z M 544.818 56.554 L 544.818 38.893 L 558.913 38.893 C 563.951 38.893 567.121 42.912 567.121 47.723 C 567.121 52.535 563.951 56.554 558.913 56.554 L 544.818 56.554 Z" text-anchor="none" font-size="none" font-weight="none" font-family="none" stroke-dashoffset="0" stroke-miterlimit="10" fill-rule="nonzero" fill="url(#color-13041360795)"/>
    <path d="M 601.594 76.536 L 601.594 74.385 L 578.952 74.385 L 578.952 56.78 L 595.311 56.78 L 595.311 54.629 L 578.952 54.629 L 578.952 38.893 L 600.462 38.893 L 600.462 36.742 L 576.574 36.742 L 576.574 76.536 L 601.594 76.536 L 601.594 76.536 Z" text-anchor="none" font-size="none" font-weight="none" font-family="none" stroke-dashoffset="0" stroke-miterlimit="10" fill-rule="nonzero" fill="url(#color-13041360795)"/>
    <path d="M 610.198 76.536 L 610.198 36.742 L 607.821 36.742 L 607.821 76.536 L 610.198 76.536 Z" text-anchor="none" font-size="none" font-weight="none" font-family="none" stroke-dashoffset="0" stroke-miterlimit="10" fill-rule="nonzero" fill="url(#color-13041360795)"/>
    <path d="M 616.708 68.724 C 619.312 74.668 623.897 77.272 629.388 77.272 C 636.577 77.272 642.181 73.366 642.181 66.46 C 642.181 61.705 639.351 58.252 629.331 54.403 C 622.142 51.629 619.821 49.704 619.821 45.459 C 619.821 40.534 624.123 38.157 629.161 38.157 C 634.03 38.157 637.596 40.308 640.087 44.157 L 641.955 42.685 C 639.124 38.327 634.709 36.006 629.331 36.006 C 622.708 36.006 617.331 39.176 617.331 45.685 C 617.331 50.327 620.048 53.61 627.86 56.441 C 636.86 59.724 639.69 62.611 639.69 66.234 C 639.69 71.668 635.898 75.121 629.501 75.121 C 624.407 75.121 620.614 72.46 618.802 67.479 L 616.708 68.724 L 616.708 68.724 Z" text-anchor="none" font-size="none" font-weight="none" font-family="none" stroke-dashoffset="0" stroke-miterlimit="10" fill-rule="nonzero" fill="url(#color-13041360795)"/>
  </g>
  <path d="M 157.123 3.962 C 131.76 14.633 114.902 36.594 112.737 63.041 L 148.308 63.35 L 148.308 121.655 C 135.936 112.994 126.192 99.23 122.945 84.692 L 113.975 84.692 C 119.387 109.437 134.234 126.449 157.123 136.038 L 157.278 54.38 L 123.254 54.38 C 126.656 40.306 136.245 26.851 148.308 18.345 L 148.308 44.482 L 157.278 44.482 L 157.123 3.962 L 157.123 3.962 Z M 172.663 8.97 C 175.551 8.665 178.44 8.513 181.176 8.513 L 181.176 0 C 176.464 0 167.494 0.608 163.998 1.52 L 163.998 137.735 C 174.943 140.624 184.521 140.776 197.595 138.039 L 196.075 129.678 C 187.561 131.806 181.48 131.806 172.663 130.59 L 172.663 8.97 L 172.663 8.97 Z M 204.315 136.038 L 213.439 131.553 L 213.285 64.742 L 226.43 64.742 L 239.731 78.506 C 238.648 87.94 234.936 97.374 228.596 106.653 L 228.596 120.263 C 241.123 107.427 249.165 88.559 249.165 74.33 L 234.318 59.793 L 246.69 49.431 C 240.659 30.254 221.945 8.602 204.315 3.962 L 204.315 136.038 L 204.315 136.038 Z M 213.285 19.118 C 222.873 25.923 231.379 35.357 235.864 45.719 L 224.575 55.926 L 213.285 55.926 L 213.285 19.118 L 213.285 19.118 Z" text-anchor="none" font-size="none" font-weight="none" font-family="none" stroke-dashoffset="0" stroke-miterlimit="10" fill-rule="nonzero" fill="url(#color-13041360795)"/>
</svg>